<svg width="629" height="594" xmlns="http://www.w3.org/2000/svg" xmlns:xlink="http://www.w3.org/1999/xlink" overflow="hidden"><defs><clipPath id="clip0"><rect x="358" y="56" width="629" height="594"/></clipPath></defs><g clip-path="url(#clip0)" transform="translate(-358 -56)"><path d="M604.5 259C604.5 226.691 630.691 200.5 663 200.5 695.309 200.5 721.5 226.691 721.5 259 721.5 291.309 695.309 317.5 663 317.5 630.691 317.5 604.5 291.309 604.5 259Z" stroke="#000000" stroke-width="1.33333" stroke-miterlimit="8" fill="#FFFFFF" fill-rule="evenodd"/><text font-family="DengXian,DengXian_MSFontService,sans-serif" font-weight="400" font-size="24" transform="translate(630.971 266)">Agent</text><rect x="359.5" y="138.5" width="164" height="231" stroke="#000000" stroke-width="1.33333" stroke-miterlimit="8" fill="#FFFFFF"/><text font-family="Cambria Math,Cambria Math_MSFontService,sans-serif" font-weight="400" font-size="24" transform="translate(427.269 165)">ğ‘†<tspan font-size="18" x="11.6133" y="4">ğ‘¡</tspan></text><rect x="364.5" y="179.5" width="154" height="60" stroke="#000000" stroke-width="1.33333" stroke-miterlimit="8" fill="#FFFFFF"/><text font-family="DengXian,DengXian_MSFontService,sans-serif" font-weight="400" font-size="24" transform="translate(384.555 216)">Packet loss</text><rect x="364.5" y="239.5" width="154" height="61" stroke="#000000" stroke-width="1.33333" stroke-miterlimit="8" fill="#FFFFFF"/><text font-family="DengXian,DengXian_MSFontService,sans-serif" font-weight="400" font-size="24" transform="translate(412.222 277)">Delay</text><rect x="364.5" y="300.5" width="154" height="60" stroke="#000000" stroke-width="1.33333" stroke-miterlimit="8" fill="#FFFFFF"/><text font-family="DengXian,DengXian_MSFontService,sans-serif" font-weight="400" font-size="24" transform="translate(379.639 337)">Throughput</text><path d="M802.5 211.5 898.5 211.5 898.5 307.5 802.5 307.5Z" stroke="#000000" stroke-width="1.33333" stroke-miterlimit="8" fill="#FFFFFF" fill-rule="evenodd"/><text font-family="Cambria Math,Cambria Math_MSFontService,sans-serif" font-weight="400" font-size="24" transform="translate(838.376 252)">ğ‘<tspan font-size="18" x="13.3333" y="5">ğ‘¡</tspan><tspan font-family="DengXian,DengXian_MSFontService,sans-serif" font-size="24" x="-22.2667" y="29">bitrat</tspan><tspan font-family="DengXian,DengXian_MSFontService,sans-serif" font-size="24" x="32.4" y="29">e</tspan></text><path d="M523.5 220.75 564 220.75 564 182.5 604.5 259 564 335.5 564 297.25 523.5 297.25Z" stroke="#000000" stroke-width="1.33333" stroke-miterlimit="8" fill="#FFFFFF" fill-rule="evenodd"/><text font-family="DengXian,DengXian_MSFontService,sans-serif" font-weight="400" font-size="24" transform="translate(541 252)">è¾“<tspan font-size="24" x="0" y="29">å…¥</tspan></text><path d="M721.5 220.75 762 220.75 762 182.5 802.5 259 762 335.5 762 297.25 721.5 297.25Z" stroke="#000000" stroke-width="1.33333" stroke-miterlimit="8" fill="#FFFFFF" fill-rule="evenodd"/><text font-family="DengXian,DengXian_MSFontService,sans-serif" font-weight="400" font-size="24" transform="translate(739.054 252)">è¾“<tspan font-size="24" x="0" y="29">å‡º</tspan></text><path d="M508.944 584.433C503.731 573.257 530.573 562.965 568.898 561.445 584.427 560.829 600.216 561.75 613.738 564.06 628.067 556.184 661.55 553.19 688.525 557.374 693.242 558.106 697.571 559.033 701.377 560.127 712.537 553.598 739.719 550.945 762.09 554.202 768.282 555.104 773.683 556.407 777.879 558.013 795.866 551.839 827.65 551.076 848.87 556.31 857.789 558.509 863.8 561.543 865.873 564.891 895.344 567.236 912.73 576.119 904.705 584.732 904.031 585.456 903.184 586.165 902.172 586.855 925.808 595.829 920.022 608.692 889.248 615.585 879.669 617.73 868.354 619.119 856.397 619.618 856.131 629.273 829.057 637.037 795.925 636.959 784.856 636.933 774.027 636.016 764.636 634.307 753.43 645.132 714.341 651.25 677.329 647.972 661.818 646.599 648.416 643.694 639.409 639.754 601.513 646.42 552.326 642.834 529.546 631.744 529.259 631.604 528.977 631.464 528.699 631.322 503.898 632.169 481.433 627.008 478.522 619.794 476.971 615.949 481.323 612.1 490.418 609.274 468.944 605.587 461.73 597.494 474.306 591.198 481.561 587.565 494.286 585.164 508.567 584.732Z" stroke="#000000" stroke-width="1.33333" stroke-miterlimit="8" fill="#FFFFFF" fill-rule="evenodd"/><path d="M517.168 610.671C508.001 610.88 498.834 610.263 490.899 608.9M540.346 630.053C536.659 630.481 532.795 630.766 528.853 630.901M639.383 639.367C636.61 638.154 634.289 636.857 632.458 635.5M767.447 629.724C767.039 631.163 766.112 632.586 764.681 633.967M822.43 603.509C843.217 606.46 856.334 612.628 856.149 619.366M901.961 586.62C898.594 588.914 893.456 590.949 886.947 592.566M865.934 564.558C866.508 565.484 866.773 566.425 866.727 567.366M770.05 561.282C772.006 559.987 774.597 558.781 777.741 557.701M698.11 562.989C698.909 561.918 700.16 560.881 701.836 559.9M613.685 564.038C618.578 564.874 623.105 565.88 627.165 567.034M511.299 587.587C510.231 586.556 509.444 585.501 508.946 584.434" stroke="#000000" stroke-width="1.33333" stroke-miterlimit="8" fill="none" fill-rule="evenodd"/><text font-family="DengXian,DengXian_MSFontService,sans-serif" font-weight="400" font-size="24" transform="translate(651.961 606)">ç½‘ç»œ</text><path d="M655.5 376.5C655.5 370.425 660.425 365.5 666.5 365.5L889.5 365.5C895.575 365.5 900.5 370.425 900.5 376.5L900.5 420.5C900.5 426.575 895.575 431.5 889.5 431.5L666.5 431.5C660.425 431.5 655.5 426.575 655.5 420.5Z" stroke="#000000" stroke-width="1.33333" stroke-miterlimit="8" fill="#FFFFFF" fill-rule="evenodd"/><text font-family="DengXian,DengXian_MSFontService,sans-serif" font-weight="400" font-size="24" transform="translate(732.801 405)">WebRTC</text><path d="M850.308 307.5 850.308 337.106 777.5 337.106 778.167 336.439 778.167 358.711 776.833 358.711 776.833 335.772 849.641 335.772 848.975 336.439 848.975 307.5ZM781.5 357.378 777.5 365.378 773.5 357.378Z"/><path d="M469.559 601.478 440.833 601.478 440.833 376.167 442.167 376.167 442.167 600.812 441.5 600.145 469.559 600.145ZM437.5 377.5 441.5 369.5 445.5 377.5Z"/><text font-family="DengXian,DengXian_MSFontService,sans-serif" font-weight="400" font-size="24" transform="translate(851.681 348)">è°ƒèŠ‚æ¯”ç‰¹ç‡</text><path d="M731.5 478 778 431.5 824.5 478 801.25 478 801.25 512 824.5 512 778 558.5 731.5 512 754.75 512 754.75 478Z" stroke="#000000" stroke-width="1.33333" stroke-miterlimit="8" fill="#FFFFFF" fill-rule="evenodd"/><text font-family="DengXian,DengXian_MSFontService,sans-serif" font-weight="400" font-size="24" transform="translate(765.468 473)">è§†<tspan font-size="24" x="0" y="29">é¢‘</tspan><tspan font-size="24" x="0" y="58">æµ</tspan><tspan font-size="24" x="-320.036" y="17">æ”¶é›†</tspan>/åé¦ˆä¿¡æ¯</text><path d="M614.5 105.5C614.5 78.9904 635.99 57.5001 662.5 57.5001 689.01 57.5001 710.5 78.9904 710.5 105.5 710.5 132.01 689.01 153.5 662.5 153.5 635.99 153.5 614.5 132.01 614.5 105.5Z" stroke="#000000" stroke-width="1.33333" stroke-miterlimit="8" fill="#FFFFFF" fill-rule="evenodd"/><text font-family="DengXian,DengXian_MSFontService,sans-serif" font-weight="400" font-size="24" transform="translate(638.138 98)">æ‹¥å¡<tspan font-size="24" x="0" y="29">åˆ¤å®š</tspan></text><path d="M0.489241-0.452866 92.3209 98.755 91.3424 99.6607-0.489241 0.452866ZM93.8615 95.5123 96.3604 104.1 87.9906 100.947Z" transform="matrix(1 0 0 -1 518.5 209.6)"/><path d="M0.57528-0.336894 93.5667 158.455 92.4162 159.129-0.57528 0.336894ZM95.7694 155.62 96.3604 164.545 88.866 159.663Z" transform="matrix(1 0 0 -1 518.5 270.045)"/><path d="M663.167 153.5 663.167 194.129 661.833 194.129 661.833 153.5ZM666.5 192.795 662.5 200.795 658.5 192.795Z"/><text font-family="DengXian,DengXian_MSFontService,sans-serif" font-weight="400" font-size="24" transform="translate(664.846 182)">è®­ç»ƒ</text></g></svg>