<?xml version="1.0" encoding="utf-8" standalone="no"?>
<!DOCTYPE svg PUBLIC "-//W3C//DTD SVG 1.1//EN"
  "http://www.w3.org/Graphics/SVG/1.1/DTD/svg11.dtd">
<!-- Created with matplotlib (https://matplotlib.org/) -->
<svg height="576pt" version="1.1" viewBox="0 0 1152 576" width="1152pt" xmlns="http://www.w3.org/2000/svg" xmlns:xlink="http://www.w3.org/1999/xlink">
 <defs>
  <style type="text/css">
*{stroke-linecap:butt;stroke-linejoin:round;}
  </style>
 </defs>
 <g id="figure_1">
  <g id="patch_1">
   <path d="M 0 576 
L 1152 576 
L 1152 0 
L 0 0 
z
" style="fill:#ffffff;"/>
  </g>
  <g id="axes_1">
   <g id="patch_2">
    <path d="M 144 512.64 
L 549.818182 512.64 
L 549.818182 69.12 
L 144 69.12 
z
" style="fill:#ffffff;"/>
   </g>
   <g id="PathCollection_1">
    <defs>
     <path d="M 0 3 
C 0.795609 3 1.55874 2.683901 2.12132 2.12132 
C 2.683901 1.55874 3 0.795609 3 0 
C 3 -0.795609 2.683901 -1.55874 2.12132 -2.12132 
C 1.55874 -2.683901 0.795609 -3 0 -3 
C -0.795609 -3 -1.55874 -2.683901 -2.12132 -2.12132 
C -2.683901 -1.55874 -3 -0.795609 -3 0 
C -3 0.795609 -2.683901 1.55874 -2.12132 2.12132 
C -1.55874 2.683901 -0.795609 3 0 3 
z
" id="ma8bf621a7a" style="stroke:#4682b4;"/>
    </defs>
    <g clip-path="url(#p0770a2b859)">
     <use style="fill:#4682b4;stroke:#4682b4;" x="433.858789" xlink:href="#ma8bf621a7a" y="135.213275"/>
     <use style="fill:#4682b4;stroke:#4682b4;" x="276.427591" xlink:href="#ma8bf621a7a" y="163.307292"/>
     <use style="fill:#4682b4;stroke:#4682b4;" x="343.01675" xlink:href="#ma8bf621a7a" y="141.488219"/>
     <use style="fill:#4682b4;stroke:#4682b4;" x="258.671463" xlink:href="#ma8bf621a7a" y="343.880623"/>
     <use style="fill:#4682b4;stroke:#4682b4;" x="505.10215" xlink:href="#ma8bf621a7a" y="140.163304"/>
     <use style="fill:#4682b4;stroke:#4682b4;" x="394.5966" xlink:href="#ma8bf621a7a" y="109.715999"/>
     <use style="fill:#4682b4;stroke:#4682b4;" x="246.168829" xlink:href="#ma8bf621a7a" y="503.147125"/>
     <use style="fill:#4682b4;stroke:#4682b4;" x="438.689442" xlink:href="#ma8bf621a7a" y="436.367679"/>
     <use style="fill:#4682b4;stroke:#4682b4;" x="476.329515" xlink:href="#ma8bf621a7a" y="372.660072"/>
     <use style="fill:#4682b4;stroke:#4682b4;" x="478.111316" xlink:href="#ma8bf621a7a" y="387.143921"/>
     <use style="fill:#4682b4;stroke:#4682b4;" x="395.139349" xlink:href="#ma8bf621a7a" y="389.486485"/>
     <use style="fill:#4682b4;stroke:#4682b4;" x="471.432015" xlink:href="#ma8bf621a7a" y="189.431581"/>
     <use style="fill:#4682b4;stroke:#4682b4;" x="270.339054" xlink:href="#ma8bf621a7a" y="144.126617"/>
     <use style="fill:#4682b4;stroke:#4682b4;" x="190.60536" xlink:href="#ma8bf621a7a" y="352.851625"/>
     <use style="fill:#4682b4;stroke:#4682b4;" x="195.381097" xlink:href="#ma8bf621a7a" y="178.883962"/>
     <use style="fill:#4682b4;stroke:#4682b4;" x="432.390358" xlink:href="#ma8bf621a7a" y="284.786271"/>
     <use style="fill:#4682b4;stroke:#4682b4;" x="545.75412" xlink:href="#ma8bf621a7a" y="442.066262"/>
     <use style="fill:#4682b4;stroke:#4682b4;" x="307.711086" xlink:href="#ma8bf621a7a" y="352.284479"/>
     <use style="fill:#4682b4;stroke:#4682b4;" x="404.035819" xlink:href="#ma8bf621a7a" y="391.660072"/>
     <use style="fill:#4682b4;stroke:#4682b4;" x="343.487851" xlink:href="#ma8bf621a7a" y="271.268263"/>
    </g>
   </g>
   <g id="matplotlib.axis_1"/>
   <g id="matplotlib.axis_2"/>
   <g id="line2d_1">
    <path clip-path="url(#p0770a2b859)" d="M 433.858789 135.213275 
L 433.858789 135.213275 
" style="fill:none;stroke:#4682b4;stroke-linecap:square;stroke-opacity:0.4;"/>
   </g>
   <g id="line2d_2">
    <path clip-path="url(#p0770a2b859)" d="M 433.858789 135.213275 
L 343.01675 141.488219 
" style="fill:none;stroke:#4682b4;stroke-linecap:square;stroke-opacity:0.4;"/>
   </g>
   <g id="line2d_3">
    <path clip-path="url(#p0770a2b859)" d="M 433.858789 135.213275 
L 505.10215 140.163304 
" style="fill:none;stroke:#4682b4;stroke-linecap:square;stroke-opacity:0.4;"/>
   </g>
   <g id="line2d_4">
    <path clip-path="url(#p0770a2b859)" d="M 433.858789 135.213275 
L 394.5966 109.715999 
" style="fill:none;stroke:#4682b4;stroke-linecap:square;stroke-opacity:0.4;"/>
   </g>
   <g id="line2d_5">
    <path clip-path="url(#p0770a2b859)" d="M 433.858789 135.213275 
L 471.432015 189.431581 
" style="fill:none;stroke:#4682b4;stroke-linecap:square;stroke-opacity:0.4;"/>
   </g>
   <g id="line2d_6">
    <path clip-path="url(#p0770a2b859)" d="M 433.858789 135.213275 
L 432.390358 284.786271 
" style="fill:none;stroke:#4682b4;stroke-linecap:square;stroke-opacity:0.4;"/>
   </g>
   <g id="line2d_7">
    <path clip-path="url(#p0770a2b859)" d="M 276.427591 163.307292 
L 276.427591 163.307292 
" style="fill:none;stroke:#4682b4;stroke-linecap:square;stroke-opacity:0.4;"/>
   </g>
   <g id="line2d_8">
    <path clip-path="url(#p0770a2b859)" d="M 276.427591 163.307292 
L 343.01675 141.488219 
" style="fill:none;stroke:#4682b4;stroke-linecap:square;stroke-opacity:0.4;"/>
   </g>
   <g id="line2d_9">
    <path clip-path="url(#p0770a2b859)" d="M 276.427591 163.307292 
L 394.5966 109.715999 
" style="fill:none;stroke:#4682b4;stroke-linecap:square;stroke-opacity:0.4;"/>
   </g>
   <g id="line2d_10">
    <path clip-path="url(#p0770a2b859)" d="M 276.427591 163.307292 
L 270.339054 144.126617 
" style="fill:none;stroke:#4682b4;stroke-linecap:square;stroke-opacity:0.4;"/>
   </g>
   <g id="line2d_11">
    <path clip-path="url(#p0770a2b859)" d="M 276.427591 163.307292 
L 195.381097 178.883962 
" style="fill:none;stroke:#4682b4;stroke-linecap:square;stroke-opacity:0.4;"/>
   </g>
   <g id="line2d_12">
    <path clip-path="url(#p0770a2b859)" d="M 276.427591 163.307292 
L 343.487851 271.268263 
" style="fill:none;stroke:#4682b4;stroke-linecap:square;stroke-opacity:0.4;"/>
   </g>
   <g id="line2d_13">
    <path clip-path="url(#p0770a2b859)" d="M 343.01675 141.488219 
L 433.858789 135.213275 
" style="fill:none;stroke:#4682b4;stroke-linecap:square;stroke-opacity:0.4;"/>
   </g>
   <g id="line2d_14">
    <path clip-path="url(#p0770a2b859)" d="M 343.01675 141.488219 
L 276.427591 163.307292 
" style="fill:none;stroke:#4682b4;stroke-linecap:square;stroke-opacity:0.4;"/>
   </g>
   <g id="line2d_15">
    <path clip-path="url(#p0770a2b859)" d="M 343.01675 141.488219 
L 343.01675 141.488219 
" style="fill:none;stroke:#4682b4;stroke-linecap:square;stroke-opacity:0.4;"/>
   </g>
   <g id="line2d_16">
    <path clip-path="url(#p0770a2b859)" d="M 343.01675 141.488219 
L 394.5966 109.715999 
" style="fill:none;stroke:#4682b4;stroke-linecap:square;stroke-opacity:0.4;"/>
   </g>
   <g id="line2d_17">
    <path clip-path="url(#p0770a2b859)" d="M 343.01675 141.488219 
L 471.432015 189.431581 
" style="fill:none;stroke:#4682b4;stroke-linecap:square;stroke-opacity:0.4;"/>
   </g>
   <g id="line2d_18">
    <path clip-path="url(#p0770a2b859)" d="M 343.01675 141.488219 
L 270.339054 144.126617 
" style="fill:none;stroke:#4682b4;stroke-linecap:square;stroke-opacity:0.4;"/>
   </g>
   <g id="line2d_19">
    <path clip-path="url(#p0770a2b859)" d="M 343.01675 141.488219 
L 343.487851 271.268263 
" style="fill:none;stroke:#4682b4;stroke-linecap:square;stroke-opacity:0.4;"/>
   </g>
   <g id="line2d_20">
    <path clip-path="url(#p0770a2b859)" d="M 258.671463 343.880623 
L 258.671463 343.880623 
" style="fill:none;stroke:#4682b4;stroke-linecap:square;stroke-opacity:0.4;"/>
   </g>
   <g id="line2d_21">
    <path clip-path="url(#p0770a2b859)" d="M 258.671463 343.880623 
L 246.168829 503.147125 
" style="fill:none;stroke:#4682b4;stroke-linecap:square;stroke-opacity:0.4;"/>
   </g>
   <g id="line2d_22">
    <path clip-path="url(#p0770a2b859)" d="M 258.671463 343.880623 
L 395.139349 389.486485 
" style="fill:none;stroke:#4682b4;stroke-linecap:square;stroke-opacity:0.4;"/>
   </g>
   <g id="line2d_23">
    <path clip-path="url(#p0770a2b859)" d="M 258.671463 343.880623 
L 190.60536 352.851625 
" style="fill:none;stroke:#4682b4;stroke-linecap:square;stroke-opacity:0.4;"/>
   </g>
   <g id="line2d_24">
    <path clip-path="url(#p0770a2b859)" d="M 258.671463 343.880623 
L 307.711086 352.284479 
" style="fill:none;stroke:#4682b4;stroke-linecap:square;stroke-opacity:0.4;"/>
   </g>
   <g id="line2d_25">
    <path clip-path="url(#p0770a2b859)" d="M 258.671463 343.880623 
L 343.487851 271.268263 
" style="fill:none;stroke:#4682b4;stroke-linecap:square;stroke-opacity:0.4;"/>
   </g>
   <g id="line2d_26">
    <path clip-path="url(#p0770a2b859)" d="M 505.10215 140.163304 
L 433.858789 135.213275 
" style="fill:none;stroke:#4682b4;stroke-linecap:square;stroke-opacity:0.4;"/>
   </g>
   <g id="line2d_27">
    <path clip-path="url(#p0770a2b859)" d="M 505.10215 140.163304 
L 505.10215 140.163304 
" style="fill:none;stroke:#4682b4;stroke-linecap:square;stroke-opacity:0.4;"/>
   </g>
   <g id="line2d_28">
    <path clip-path="url(#p0770a2b859)" d="M 505.10215 140.163304 
L 394.5966 109.715999 
" style="fill:none;stroke:#4682b4;stroke-linecap:square;stroke-opacity:0.4;"/>
   </g>
   <g id="line2d_29">
    <path clip-path="url(#p0770a2b859)" d="M 505.10215 140.163304 
L 471.432015 189.431581 
" style="fill:none;stroke:#4682b4;stroke-linecap:square;stroke-opacity:0.4;"/>
   </g>
   <g id="line2d_30">
    <path clip-path="url(#p0770a2b859)" d="M 394.5966 109.715999 
L 433.858789 135.213275 
" style="fill:none;stroke:#4682b4;stroke-linecap:square;stroke-opacity:0.4;"/>
   </g>
   <g id="line2d_31">
    <path clip-path="url(#p0770a2b859)" d="M 394.5966 109.715999 
L 276.427591 163.307292 
" style="fill:none;stroke:#4682b4;stroke-linecap:square;stroke-opacity:0.4;"/>
   </g>
   <g id="line2d_32">
    <path clip-path="url(#p0770a2b859)" d="M 394.5966 109.715999 
L 343.01675 141.488219 
" style="fill:none;stroke:#4682b4;stroke-linecap:square;stroke-opacity:0.4;"/>
   </g>
   <g id="line2d_33">
    <path clip-path="url(#p0770a2b859)" d="M 394.5966 109.715999 
L 505.10215 140.163304 
" style="fill:none;stroke:#4682b4;stroke-linecap:square;stroke-opacity:0.4;"/>
   </g>
   <g id="line2d_34">
    <path clip-path="url(#p0770a2b859)" d="M 394.5966 109.715999 
L 394.5966 109.715999 
" style="fill:none;stroke:#4682b4;stroke-linecap:square;stroke-opacity:0.4;"/>
   </g>
   <g id="line2d_35">
    <path clip-path="url(#p0770a2b859)" d="M 394.5966 109.715999 
L 471.432015 189.431581 
" style="fill:none;stroke:#4682b4;stroke-linecap:square;stroke-opacity:0.4;"/>
   </g>
   <g id="line2d_36">
    <path clip-path="url(#p0770a2b859)" d="M 394.5966 109.715999 
L 270.339054 144.126617 
" style="fill:none;stroke:#4682b4;stroke-linecap:square;stroke-opacity:0.4;"/>
   </g>
   <g id="line2d_37">
    <path clip-path="url(#p0770a2b859)" d="M 246.168829 503.147125 
L 258.671463 343.880623 
" style="fill:none;stroke:#4682b4;stroke-linecap:square;stroke-opacity:0.4;"/>
   </g>
   <g id="line2d_38">
    <path clip-path="url(#p0770a2b859)" d="M 246.168829 503.147125 
L 246.168829 503.147125 
" style="fill:none;stroke:#4682b4;stroke-linecap:square;stroke-opacity:0.4;"/>
   </g>
   <g id="line2d_39">
    <path clip-path="url(#p0770a2b859)" d="M 438.689442 436.367679 
L 438.689442 436.367679 
" style="fill:none;stroke:#4682b4;stroke-linecap:square;stroke-opacity:0.4;"/>
   </g>
   <g id="line2d_40">
    <path clip-path="url(#p0770a2b859)" d="M 438.689442 436.367679 
L 476.329515 372.660072 
" style="fill:none;stroke:#4682b4;stroke-linecap:square;stroke-opacity:0.4;"/>
   </g>
   <g id="line2d_41">
    <path clip-path="url(#p0770a2b859)" d="M 438.689442 436.367679 
L 478.111316 387.143921 
" style="fill:none;stroke:#4682b4;stroke-linecap:square;stroke-opacity:0.4;"/>
   </g>
   <g id="line2d_42">
    <path clip-path="url(#p0770a2b859)" d="M 438.689442 436.367679 
L 395.139349 389.486485 
" style="fill:none;stroke:#4682b4;stroke-linecap:square;stroke-opacity:0.4;"/>
   </g>
   <g id="line2d_43">
    <path clip-path="url(#p0770a2b859)" d="M 438.689442 436.367679 
L 432.390358 284.786271 
" style="fill:none;stroke:#4682b4;stroke-linecap:square;stroke-opacity:0.4;"/>
   </g>
   <g id="line2d_44">
    <path clip-path="url(#p0770a2b859)" d="M 438.689442 436.367679 
L 545.75412 442.066262 
" style="fill:none;stroke:#4682b4;stroke-linecap:square;stroke-opacity:0.4;"/>
   </g>
   <g id="line2d_45">
    <path clip-path="url(#p0770a2b859)" d="M 438.689442 436.367679 
L 404.035819 391.660072 
" style="fill:none;stroke:#4682b4;stroke-linecap:square;stroke-opacity:0.4;"/>
   </g>
   <g id="line2d_46">
    <path clip-path="url(#p0770a2b859)" d="M 476.329515 372.660072 
L 438.689442 436.367679 
" style="fill:none;stroke:#4682b4;stroke-linecap:square;stroke-opacity:0.4;"/>
   </g>
   <g id="line2d_47">
    <path clip-path="url(#p0770a2b859)" d="M 476.329515 372.660072 
L 476.329515 372.660072 
" style="fill:none;stroke:#4682b4;stroke-linecap:square;stroke-opacity:0.4;"/>
   </g>
   <g id="line2d_48">
    <path clip-path="url(#p0770a2b859)" d="M 476.329515 372.660072 
L 478.111316 387.143921 
" style="fill:none;stroke:#4682b4;stroke-linecap:square;stroke-opacity:0.4;"/>
   </g>
   <g id="line2d_49">
    <path clip-path="url(#p0770a2b859)" d="M 476.329515 372.660072 
L 395.139349 389.486485 
" style="fill:none;stroke:#4682b4;stroke-linecap:square;stroke-opacity:0.4;"/>
   </g>
   <g id="line2d_50">
    <path clip-path="url(#p0770a2b859)" d="M 476.329515 372.660072 
L 432.390358 284.786271 
" style="fill:none;stroke:#4682b4;stroke-linecap:square;stroke-opacity:0.4;"/>
   </g>
   <g id="line2d_51">
    <path clip-path="url(#p0770a2b859)" d="M 476.329515 372.660072 
L 545.75412 442.066262 
" style="fill:none;stroke:#4682b4;stroke-linecap:square;stroke-opacity:0.4;"/>
   </g>
   <g id="line2d_52">
    <path clip-path="url(#p0770a2b859)" d="M 476.329515 372.660072 
L 404.035819 391.660072 
" style="fill:none;stroke:#4682b4;stroke-linecap:square;stroke-opacity:0.4;"/>
   </g>
   <g id="line2d_53">
    <path clip-path="url(#p0770a2b859)" d="M 478.111316 387.143921 
L 438.689442 436.367679 
" style="fill:none;stroke:#4682b4;stroke-linecap:square;stroke-opacity:0.4;"/>
   </g>
   <g id="line2d_54">
    <path clip-path="url(#p0770a2b859)" d="M 478.111316 387.143921 
L 476.329515 372.660072 
" style="fill:none;stroke:#4682b4;stroke-linecap:square;stroke-opacity:0.4;"/>
   </g>
   <g id="line2d_55">
    <path clip-path="url(#p0770a2b859)" d="M 478.111316 387.143921 
L 478.111316 387.143921 
" style="fill:none;stroke:#4682b4;stroke-linecap:square;stroke-opacity:0.4;"/>
   </g>
   <g id="line2d_56">
    <path clip-path="url(#p0770a2b859)" d="M 478.111316 387.143921 
L 395.139349 389.486485 
" style="fill:none;stroke:#4682b4;stroke-linecap:square;stroke-opacity:0.4;"/>
   </g>
   <g id="line2d_57">
    <path clip-path="url(#p0770a2b859)" d="M 478.111316 387.143921 
L 432.390358 284.786271 
" style="fill:none;stroke:#4682b4;stroke-linecap:square;stroke-opacity:0.4;"/>
   </g>
   <g id="line2d_58">
    <path clip-path="url(#p0770a2b859)" d="M 478.111316 387.143921 
L 545.75412 442.066262 
" style="fill:none;stroke:#4682b4;stroke-linecap:square;stroke-opacity:0.4;"/>
   </g>
   <g id="line2d_59">
    <path clip-path="url(#p0770a2b859)" d="M 478.111316 387.143921 
L 404.035819 391.660072 
" style="fill:none;stroke:#4682b4;stroke-linecap:square;stroke-opacity:0.4;"/>
   </g>
   <g id="line2d_60">
    <path clip-path="url(#p0770a2b859)" d="M 395.139349 389.486485 
L 258.671463 343.880623 
" style="fill:none;stroke:#4682b4;stroke-linecap:square;stroke-opacity:0.4;"/>
   </g>
   <g id="line2d_61">
    <path clip-path="url(#p0770a2b859)" d="M 395.139349 389.486485 
L 438.689442 436.367679 
" style="fill:none;stroke:#4682b4;stroke-linecap:square;stroke-opacity:0.4;"/>
   </g>
   <g id="line2d_62">
    <path clip-path="url(#p0770a2b859)" d="M 395.139349 389.486485 
L 476.329515 372.660072 
" style="fill:none;stroke:#4682b4;stroke-linecap:square;stroke-opacity:0.4;"/>
   </g>
   <g id="line2d_63">
    <path clip-path="url(#p0770a2b859)" d="M 395.139349 389.486485 
L 478.111316 387.143921 
" style="fill:none;stroke:#4682b4;stroke-linecap:square;stroke-opacity:0.4;"/>
   </g>
   <g id="line2d_64">
    <path clip-path="url(#p0770a2b859)" d="M 395.139349 389.486485 
L 395.139349 389.486485 
" style="fill:none;stroke:#4682b4;stroke-linecap:square;stroke-opacity:0.4;"/>
   </g>
   <g id="line2d_65">
    <path clip-path="url(#p0770a2b859)" d="M 395.139349 389.486485 
L 432.390358 284.786271 
" style="fill:none;stroke:#4682b4;stroke-linecap:square;stroke-opacity:0.4;"/>
   </g>
   <g id="line2d_66">
    <path clip-path="url(#p0770a2b859)" d="M 395.139349 389.486485 
L 307.711086 352.284479 
" style="fill:none;stroke:#4682b4;stroke-linecap:square;stroke-opacity:0.4;"/>
   </g>
   <g id="line2d_67">
    <path clip-path="url(#p0770a2b859)" d="M 395.139349 389.486485 
L 404.035819 391.660072 
" style="fill:none;stroke:#4682b4;stroke-linecap:square;stroke-opacity:0.4;"/>
   </g>
   <g id="line2d_68">
    <path clip-path="url(#p0770a2b859)" d="M 395.139349 389.486485 
L 343.487851 271.268263 
" style="fill:none;stroke:#4682b4;stroke-linecap:square;stroke-opacity:0.4;"/>
   </g>
   <g id="line2d_69">
    <path clip-path="url(#p0770a2b859)" d="M 471.432015 189.431581 
L 433.858789 135.213275 
" style="fill:none;stroke:#4682b4;stroke-linecap:square;stroke-opacity:0.4;"/>
   </g>
   <g id="line2d_70">
    <path clip-path="url(#p0770a2b859)" d="M 471.432015 189.431581 
L 343.01675 141.488219 
" style="fill:none;stroke:#4682b4;stroke-linecap:square;stroke-opacity:0.4;"/>
   </g>
   <g id="line2d_71">
    <path clip-path="url(#p0770a2b859)" d="M 471.432015 189.431581 
L 505.10215 140.163304 
" style="fill:none;stroke:#4682b4;stroke-linecap:square;stroke-opacity:0.4;"/>
   </g>
   <g id="line2d_72">
    <path clip-path="url(#p0770a2b859)" d="M 471.432015 189.431581 
L 394.5966 109.715999 
" style="fill:none;stroke:#4682b4;stroke-linecap:square;stroke-opacity:0.4;"/>
   </g>
   <g id="line2d_73">
    <path clip-path="url(#p0770a2b859)" d="M 471.432015 189.431581 
L 471.432015 189.431581 
" style="fill:none;stroke:#4682b4;stroke-linecap:square;stroke-opacity:0.4;"/>
   </g>
   <g id="line2d_74">
    <path clip-path="url(#p0770a2b859)" d="M 471.432015 189.431581 
L 432.390358 284.786271 
" style="fill:none;stroke:#4682b4;stroke-linecap:square;stroke-opacity:0.4;"/>
   </g>
   <g id="line2d_75">
    <path clip-path="url(#p0770a2b859)" d="M 471.432015 189.431581 
L 343.487851 271.268263 
" style="fill:none;stroke:#4682b4;stroke-linecap:square;stroke-opacity:0.4;"/>
   </g>
   <g id="line2d_76">
    <path clip-path="url(#p0770a2b859)" d="M 270.339054 144.126617 
L 276.427591 163.307292 
" style="fill:none;stroke:#4682b4;stroke-linecap:square;stroke-opacity:0.4;"/>
   </g>
   <g id="line2d_77">
    <path clip-path="url(#p0770a2b859)" d="M 270.339054 144.126617 
L 343.01675 141.488219 
" style="fill:none;stroke:#4682b4;stroke-linecap:square;stroke-opacity:0.4;"/>
   </g>
   <g id="line2d_78">
    <path clip-path="url(#p0770a2b859)" d="M 270.339054 144.126617 
L 394.5966 109.715999 
" style="fill:none;stroke:#4682b4;stroke-linecap:square;stroke-opacity:0.4;"/>
   </g>
   <g id="line2d_79">
    <path clip-path="url(#p0770a2b859)" d="M 270.339054 144.126617 
L 270.339054 144.126617 
" style="fill:none;stroke:#4682b4;stroke-linecap:square;stroke-opacity:0.4;"/>
   </g>
   <g id="line2d_80">
    <path clip-path="url(#p0770a2b859)" d="M 270.339054 144.126617 
L 195.381097 178.883962 
" style="fill:none;stroke:#4682b4;stroke-linecap:square;stroke-opacity:0.4;"/>
   </g>
   <g id="line2d_81">
    <path clip-path="url(#p0770a2b859)" d="M 270.339054 144.126617 
L 343.487851 271.268263 
" style="fill:none;stroke:#4682b4;stroke-linecap:square;stroke-opacity:0.4;"/>
   </g>
   <g id="line2d_82">
    <path clip-path="url(#p0770a2b859)" d="M 190.60536 352.851625 
L 258.671463 343.880623 
" style="fill:none;stroke:#4682b4;stroke-linecap:square;stroke-opacity:0.4;"/>
   </g>
   <g id="line2d_83">
    <path clip-path="url(#p0770a2b859)" d="M 190.60536 352.851625 
L 190.60536 352.851625 
" style="fill:none;stroke:#4682b4;stroke-linecap:square;stroke-opacity:0.4;"/>
   </g>
   <g id="line2d_84">
    <path clip-path="url(#p0770a2b859)" d="M 190.60536 352.851625 
L 307.711086 352.284479 
" style="fill:none;stroke:#4682b4;stroke-linecap:square;stroke-opacity:0.4;"/>
   </g>
   <g id="line2d_85">
    <path clip-path="url(#p0770a2b859)" d="M 195.381097 178.883962 
L 276.427591 163.307292 
" style="fill:none;stroke:#4682b4;stroke-linecap:square;stroke-opacity:0.4;"/>
   </g>
   <g id="line2d_86">
    <path clip-path="url(#p0770a2b859)" d="M 195.381097 178.883962 
L 270.339054 144.126617 
" style="fill:none;stroke:#4682b4;stroke-linecap:square;stroke-opacity:0.4;"/>
   </g>
   <g id="line2d_87">
    <path clip-path="url(#p0770a2b859)" d="M 195.381097 178.883962 
L 195.381097 178.883962 
" style="fill:none;stroke:#4682b4;stroke-linecap:square;stroke-opacity:0.4;"/>
   </g>
   <g id="line2d_88">
    <path clip-path="url(#p0770a2b859)" d="M 432.390358 284.786271 
L 433.858789 135.213275 
" style="fill:none;stroke:#4682b4;stroke-linecap:square;stroke-opacity:0.4;"/>
   </g>
   <g id="line2d_89">
    <path clip-path="url(#p0770a2b859)" d="M 432.390358 284.786271 
L 438.689442 436.367679 
" style="fill:none;stroke:#4682b4;stroke-linecap:square;stroke-opacity:0.4;"/>
   </g>
   <g id="line2d_90">
    <path clip-path="url(#p0770a2b859)" d="M 432.390358 284.786271 
L 476.329515 372.660072 
" style="fill:none;stroke:#4682b4;stroke-linecap:square;stroke-opacity:0.4;"/>
   </g>
   <g id="line2d_91">
    <path clip-path="url(#p0770a2b859)" d="M 432.390358 284.786271 
L 478.111316 387.143921 
" style="fill:none;stroke:#4682b4;stroke-linecap:square;stroke-opacity:0.4;"/>
   </g>
   <g id="line2d_92">
    <path clip-path="url(#p0770a2b859)" d="M 432.390358 284.786271 
L 395.139349 389.486485 
" style="fill:none;stroke:#4682b4;stroke-linecap:square;stroke-opacity:0.4;"/>
   </g>
   <g id="line2d_93">
    <path clip-path="url(#p0770a2b859)" d="M 432.390358 284.786271 
L 471.432015 189.431581 
" style="fill:none;stroke:#4682b4;stroke-linecap:square;stroke-opacity:0.4;"/>
   </g>
   <g id="line2d_94">
    <path clip-path="url(#p0770a2b859)" d="M 432.390358 284.786271 
L 432.390358 284.786271 
" style="fill:none;stroke:#4682b4;stroke-linecap:square;stroke-opacity:0.4;"/>
   </g>
   <g id="line2d_95">
    <path clip-path="url(#p0770a2b859)" d="M 432.390358 284.786271 
L 307.711086 352.284479 
" style="fill:none;stroke:#4682b4;stroke-linecap:square;stroke-opacity:0.4;"/>
   </g>
   <g id="line2d_96">
    <path clip-path="url(#p0770a2b859)" d="M 432.390358 284.786271 
L 404.035819 391.660072 
" style="fill:none;stroke:#4682b4;stroke-linecap:square;stroke-opacity:0.4;"/>
   </g>
   <g id="line2d_97">
    <path clip-path="url(#p0770a2b859)" d="M 432.390358 284.786271 
L 343.487851 271.268263 
" style="fill:none;stroke:#4682b4;stroke-linecap:square;stroke-opacity:0.4;"/>
   </g>
   <g id="line2d_98">
    <path clip-path="url(#p0770a2b859)" d="M 545.75412 442.066262 
L 438.689442 436.367679 
" style="fill:none;stroke:#4682b4;stroke-linecap:square;stroke-opacity:0.4;"/>
   </g>
   <g id="line2d_99">
    <path clip-path="url(#p0770a2b859)" d="M 545.75412 442.066262 
L 476.329515 372.660072 
" style="fill:none;stroke:#4682b4;stroke-linecap:square;stroke-opacity:0.4;"/>
   </g>
   <g id="line2d_100">
    <path clip-path="url(#p0770a2b859)" d="M 545.75412 442.066262 
L 478.111316 387.143921 
" style="fill:none;stroke:#4682b4;stroke-linecap:square;stroke-opacity:0.4;"/>
   </g>
   <g id="line2d_101">
    <path clip-path="url(#p0770a2b859)" d="M 545.75412 442.066262 
L 545.75412 442.066262 
" style="fill:none;stroke:#4682b4;stroke-linecap:square;stroke-opacity:0.4;"/>
   </g>
   <g id="line2d_102">
    <path clip-path="url(#p0770a2b859)" d="M 307.711086 352.284479 
L 258.671463 343.880623 
" style="fill:none;stroke:#4682b4;stroke-linecap:square;stroke-opacity:0.4;"/>
   </g>
   <g id="line2d_103">
    <path clip-path="url(#p0770a2b859)" d="M 307.711086 352.284479 
L 395.139349 389.486485 
" style="fill:none;stroke:#4682b4;stroke-linecap:square;stroke-opacity:0.4;"/>
   </g>
   <g id="line2d_104">
    <path clip-path="url(#p0770a2b859)" d="M 307.711086 352.284479 
L 190.60536 352.851625 
" style="fill:none;stroke:#4682b4;stroke-linecap:square;stroke-opacity:0.4;"/>
   </g>
   <g id="line2d_105">
    <path clip-path="url(#p0770a2b859)" d="M 307.711086 352.284479 
L 432.390358 284.786271 
" style="fill:none;stroke:#4682b4;stroke-linecap:square;stroke-opacity:0.4;"/>
   </g>
   <g id="line2d_106">
    <path clip-path="url(#p0770a2b859)" d="M 307.711086 352.284479 
L 307.711086 352.284479 
" style="fill:none;stroke:#4682b4;stroke-linecap:square;stroke-opacity:0.4;"/>
   </g>
   <g id="line2d_107">
    <path clip-path="url(#p0770a2b859)" d="M 307.711086 352.284479 
L 404.035819 391.660072 
" style="fill:none;stroke:#4682b4;stroke-linecap:square;stroke-opacity:0.4;"/>
   </g>
   <g id="line2d_108">
    <path clip-path="url(#p0770a2b859)" d="M 307.711086 352.284479 
L 343.487851 271.268263 
" style="fill:none;stroke:#4682b4;stroke-linecap:square;stroke-opacity:0.4;"/>
   </g>
   <g id="line2d_109">
    <path clip-path="url(#p0770a2b859)" d="M 404.035819 391.660072 
L 438.689442 436.367679 
" style="fill:none;stroke:#4682b4;stroke-linecap:square;stroke-opacity:0.4;"/>
   </g>
   <g id="line2d_110">
    <path clip-path="url(#p0770a2b859)" d="M 404.035819 391.660072 
L 476.329515 372.660072 
" style="fill:none;stroke:#4682b4;stroke-linecap:square;stroke-opacity:0.4;"/>
   </g>
   <g id="line2d_111">
    <path clip-path="url(#p0770a2b859)" d="M 404.035819 391.660072 
L 478.111316 387.143921 
" style="fill:none;stroke:#4682b4;stroke-linecap:square;stroke-opacity:0.4;"/>
   </g>
   <g id="line2d_112">
    <path clip-path="url(#p0770a2b859)" d="M 404.035819 391.660072 
L 395.139349 389.486485 
" style="fill:none;stroke:#4682b4;stroke-linecap:square;stroke-opacity:0.4;"/>
   </g>
   <g id="line2d_113">
    <path clip-path="url(#p0770a2b859)" d="M 404.035819 391.660072 
L 432.390358 284.786271 
" style="fill:none;stroke:#4682b4;stroke-linecap:square;stroke-opacity:0.4;"/>
   </g>
   <g id="line2d_114">
    <path clip-path="url(#p0770a2b859)" d="M 404.035819 391.660072 
L 307.711086 352.284479 
" style="fill:none;stroke:#4682b4;stroke-linecap:square;stroke-opacity:0.4;"/>
   </g>
   <g id="line2d_115">
    <path clip-path="url(#p0770a2b859)" d="M 404.035819 391.660072 
L 404.035819 391.660072 
" style="fill:none;stroke:#4682b4;stroke-linecap:square;stroke-opacity:0.4;"/>
   </g>
   <g id="line2d_116">
    <path clip-path="url(#p0770a2b859)" d="M 404.035819 391.660072 
L 343.487851 271.268263 
" style="fill:none;stroke:#4682b4;stroke-linecap:square;stroke-opacity:0.4;"/>
   </g>
   <g id="line2d_117">
    <path clip-path="url(#p0770a2b859)" d="M 343.487851 271.268263 
L 276.427591 163.307292 
" style="fill:none;stroke:#4682b4;stroke-linecap:square;stroke-opacity:0.4;"/>
   </g>
   <g id="line2d_118">
    <path clip-path="url(#p0770a2b859)" d="M 343.487851 271.268263 
L 343.01675 141.488219 
" style="fill:none;stroke:#4682b4;stroke-linecap:square;stroke-opacity:0.4;"/>
   </g>
   <g id="line2d_119">
    <path clip-path="url(#p0770a2b859)" d="M 343.487851 271.268263 
L 258.671463 343.880623 
" style="fill:none;stroke:#4682b4;stroke-linecap:square;stroke-opacity:0.4;"/>
   </g>
   <g id="line2d_120">
    <path clip-path="url(#p0770a2b859)" d="M 343.487851 271.268263 
L 395.139349 389.486485 
" style="fill:none;stroke:#4682b4;stroke-linecap:square;stroke-opacity:0.4;"/>
   </g>
   <g id="line2d_121">
    <path clip-path="url(#p0770a2b859)" d="M 343.487851 271.268263 
L 471.432015 189.431581 
" style="fill:none;stroke:#4682b4;stroke-linecap:square;stroke-opacity:0.4;"/>
   </g>
   <g id="line2d_122">
    <path clip-path="url(#p0770a2b859)" d="M 343.487851 271.268263 
L 270.339054 144.126617 
" style="fill:none;stroke:#4682b4;stroke-linecap:square;stroke-opacity:0.4;"/>
   </g>
   <g id="line2d_123">
    <path clip-path="url(#p0770a2b859)" d="M 343.487851 271.268263 
L 432.390358 284.786271 
" style="fill:none;stroke:#4682b4;stroke-linecap:square;stroke-opacity:0.4;"/>
   </g>
   <g id="line2d_124">
    <path clip-path="url(#p0770a2b859)" d="M 343.487851 271.268263 
L 307.711086 352.284479 
" style="fill:none;stroke:#4682b4;stroke-linecap:square;stroke-opacity:0.4;"/>
   </g>
   <g id="line2d_125">
    <path clip-path="url(#p0770a2b859)" d="M 343.487851 271.268263 
L 404.035819 391.660072 
" style="fill:none;stroke:#4682b4;stroke-linecap:square;stroke-opacity:0.4;"/>
   </g>
   <g id="line2d_126">
    <path clip-path="url(#p0770a2b859)" d="M 343.487851 271.268263 
L 343.487851 271.268263 
" style="fill:none;stroke:#4682b4;stroke-linecap:square;stroke-opacity:0.4;"/>
   </g>
   <g id="patch_3">
    <path d="M 144 512.64 
L 144 69.12 
" style="fill:none;stroke:#000000;stroke-linecap:square;stroke-linejoin:miter;stroke-width:0.8;"/>
   </g>
   <g id="patch_4">
    <path d="M 549.818182 512.64 
L 549.818182 69.12 
" style="fill:none;stroke:#000000;stroke-linecap:square;stroke-linejoin:miter;stroke-width:0.8;"/>
   </g>
   <g id="patch_5">
    <path d="M 144 512.64 
L 549.818182 512.64 
" style="fill:none;stroke:#000000;stroke-linecap:square;stroke-linejoin:miter;stroke-width:0.8;"/>
   </g>
   <g id="patch_6">
    <path d="M 144 69.12 
L 549.818182 69.12 
" style="fill:none;stroke:#000000;stroke-linecap:square;stroke-linejoin:miter;stroke-width:0.8;"/>
   </g>
   <g id="text_1">
    <!-- 最小能量级通信半径3.653004 -->
    <defs>
     <path d="M 7.421875 4.296875 
Q 10.546875 4.6875 17.1875 5.46875 
L 17.1875 38.28125 
Q 12.109375 38.28125 6.640625 37.890625 
L 6.640625 44.53125 
Q 12.109375 44.140625 17.578125 44.140625 
L 78.515625 44.140625 
Q 85.546875 44.140625 92.1875 44.53125 
L 92.1875 37.890625 
Q 85.546875 38.28125 78.515625 38.28125 
L 47.65625 38.28125 
L 47.65625 10.546875 
L 53.125 12.109375 
Q 53.125 8.59375 53.515625 6.25 
Q 50.390625 5.46875 47.65625 5.078125 
Q 47.65625 -1.953125 48.046875 -8.59375 
L 40.625 -8.59375 
Q 41.015625 -1.953125 41.015625 3.90625 
Q 36.71875 3.125 28.3125 1.359375 
Q 19.921875 -0.390625 10.15625 -2.734375 
Q 8.984375 1.5625 7.421875 4.296875 
z
M 79.6875 76.953125 
Q 79.296875 71.875 79.296875 67.578125 
L 79.296875 60.546875 
Q 79.296875 56.25 79.6875 50.78125 
L 19.921875 50.78125 
Q 20.3125 56.25 20.3125 60.546875 
L 20.3125 67.578125 
Q 20.3125 71.875 19.921875 76.953125 
L 79.6875 76.953125 
z
M 51.5625 32.03125 
Q 58.59375 31.640625 64.453125 31.640625 
L 83.984375 31.640625 
Q 79.6875 15.234375 73.828125 6.25 
Q 83.59375 0 92.578125 -1.5625 
Q 89.0625 -4.296875 88.28125 -7.8125 
Q 78.515625 -4.6875 69.921875 2.34375 
Q 64.84375 -3.125 56.25 -8.984375 
Q 54.6875 -6.640625 50.78125 -4.296875 
Q 58.984375 -1.5625 64.84375 5.46875 
Q 58.203125 12.109375 54.6875 26.171875 
L 51.5625 26.171875 
z
M 71.875 66.40625 
L 71.875 71.875 
L 27.34375 71.875 
L 27.34375 66.40625 
z
M 71.875 55.859375 
L 71.875 60.9375 
L 27.34375 60.9375 
L 27.34375 55.859375 
z
M 60.9375 26.171875 
Q 62.5 16.796875 68.75 9.765625 
Q 73.4375 16.40625 75.78125 26.171875 
L 60.9375 26.171875 
z
M 41.015625 19.53125 
L 41.015625 26.171875 
L 23.828125 26.171875 
L 23.828125 19.53125 
z
M 41.015625 8.984375 
L 41.015625 14.453125 
L 23.828125 14.453125 
L 23.828125 6.640625 
z
M 41.015625 31.640625 
L 41.015625 38.28125 
L 23.828125 38.28125 
L 23.828125 31.640625 
z
" id="SimHei-26368"/>
     <path d="M 54.6875 80.46875 
Q 54.296875 75 54.296875 65.625 
L 54.296875 2.734375 
Q 54.296875 -4.6875 50.390625 -6.640625 
Q 46.484375 -8.59375 37.109375 -9.375 
Q 36.328125 -4.6875 33.59375 -0.390625 
Q 42.1875 -0.390625 44.328125 0 
Q 46.484375 0.390625 46.484375 4.6875 
L 46.484375 65.625 
Q 46.484375 72.65625 46.09375 80.46875 
L 54.6875 80.46875 
z
M 32.421875 53.125 
Q 28.90625 43.359375 24.21875 30.65625 
Q 19.53125 17.96875 16.015625 11.71875 
Q 12.109375 14.84375 7.8125 15.625 
Q 14.453125 27.34375 18.359375 38.859375 
Q 22.265625 50.390625 23.4375 55.859375 
Q 28.125 53.515625 32.421875 53.125 
z
M 73.046875 56.25 
Q 88.671875 28.125 91.796875 17.96875 
Q 87.890625 17.1875 83.984375 14.453125 
Q 78.125 31.25 66.015625 51.953125 
Q 69.140625 53.515625 73.046875 56.25 
z
" id="SimHei-23567"/>
     <path d="M 31.640625 -2.34375 
Q 38.671875 -2.34375 39.453125 -0.96875 
Q 40.234375 0.390625 40.234375 3.125 
L 40.234375 8.59375 
L 19.140625 8.59375 
L 19.140625 -9.765625 
L 11.71875 -9.765625 
Q 12.109375 -1.953125 12.109375 4.296875 
L 12.109375 30.46875 
Q 12.109375 37.5 11.71875 42.96875 
L 47.65625 42.96875 
Q 47.265625 37.109375 47.265625 30.078125 
L 47.265625 -2.734375 
Q 46.875 -7.03125 43.75 -8.203125 
Q 40.625 -9.375 34.765625 -10.15625 
Q 33.984375 -6.640625 31.640625 -2.34375 
z
M 90.625 25.390625 
Q 89.0625 25 81.4375 21.484375 
Q 73.828125 17.96875 64.0625 14.84375 
L 64.0625 3.90625 
Q 64.0625 -0.78125 68.359375 -0.78125 
L 82.421875 -0.78125 
Q 85.546875 0 86.71875 8.984375 
Q 89.84375 7.421875 94.53125 5.859375 
Q 91.796875 -6.640625 85.546875 -6.640625 
L 64.453125 -6.640625 
Q 57.03125 -6.640625 57.03125 0.78125 
L 57.03125 26.171875 
Q 57.03125 32.03125 56.640625 36.71875 
L 64.453125 36.71875 
Q 64.0625 32.03125 64.0625 26.5625 
L 64.0625 21.484375 
Q 67.96875 22.65625 74.40625 25.78125 
Q 80.859375 28.90625 84.765625 32.421875 
Q 88.28125 27.734375 90.625 25.390625 
z
M 64.0625 64.0625 
Q 69.53125 66.40625 74.609375 68.9375 
Q 79.6875 71.484375 84.765625 75.390625 
Q 87.890625 71.484375 90.234375 68.75 
Q 87.890625 67.96875 80.265625 64.25 
Q 72.65625 60.546875 64.0625 57.8125 
L 64.0625 51.953125 
Q 64.0625 47.265625 69.53125 47.265625 
L 80.859375 47.265625 
Q 84.765625 47.265625 85.9375 57.421875 
Q 89.84375 55.46875 93.75 53.90625 
Q 91.015625 41.40625 83.984375 41.40625 
L 66.40625 41.40625 
Q 57.03125 41.40625 57.03125 50 
L 57.03125 69.921875 
Q 57.03125 74.609375 56.640625 80.078125 
L 64.453125 80.078125 
Q 64.0625 77.34375 64.0625 68.75 
z
M 47.265625 48.046875 
Q 46.09375 50 44.140625 52.34375 
Q 31.25 51.5625 22.65625 50.78125 
Q 14.0625 50 9.765625 48.828125 
Q 8.59375 53.515625 7.03125 57.03125 
Q 9.765625 58.203125 15.421875 65.421875 
Q 21.09375 72.65625 24.609375 80.859375 
Q 26.5625 79.296875 28.90625 78.515625 
Q 31.25 77.734375 33.984375 76.5625 
Q 30.859375 74.21875 27.53125 69.53125 
Q 24.21875 64.84375 16.796875 56.25 
Q 33.203125 57.03125 41.015625 57.421875 
Q 36.328125 63.671875 34.375 65.625 
Q 37.109375 67.1875 40.625 69.921875 
Q 43.75 65.625 46.671875 62.109375 
Q 49.609375 58.59375 54.296875 53.125 
Q 50 50 47.265625 48.046875 
z
M 40.234375 14.84375 
L 40.234375 23.046875 
L 19.140625 23.046875 
L 19.140625 14.84375 
z
M 40.234375 29.296875 
L 40.234375 36.71875 
L 19.140625 36.71875 
L 19.140625 29.296875 
z
" id="SimHei-33021"/>
     <path d="M 82.03125 39.0625 
Q 81.640625 34.375 81.640625 26.5625 
Q 81.640625 19.140625 82.03125 14.84375 
L 53.515625 14.84375 
L 53.515625 9.765625 
L 71.484375 9.765625 
Q 78.125 9.765625 83.984375 10.15625 
L 83.984375 4.296875 
Q 78.515625 4.6875 71.484375 4.6875 
L 53.515625 4.6875 
L 53.515625 -1.171875 
L 80.078125 -1.171875 
Q 86.328125 -1.171875 92.578125 -0.78125 
L 92.578125 -6.640625 
Q 86.328125 -6.25 80.078125 -6.25 
L 19.921875 -6.25 
Q 14.0625 -6.25 7.421875 -6.640625 
L 7.421875 -0.78125 
Q 14.453125 -0.78125 19.921875 -1.171875 
L 46.484375 -1.171875 
L 46.484375 4.6875 
L 26.953125 4.6875 
Q 21.09375 4.6875 15.234375 3.90625 
L 15.234375 10.15625 
Q 21.484375 9.765625 26.953125 9.765625 
L 46.484375 9.765625 
L 46.484375 14.84375 
L 17.96875 14.84375 
Q 18.359375 21.484375 18.359375 27.734375 
Q 18.359375 33.984375 17.96875 39.0625 
L 82.03125 39.0625 
z
M 81.25 77.34375 
Q 80.859375 71.484375 80.859375 66.40625 
Q 80.859375 61.328125 81.25 53.125 
L 18.75 53.125 
Q 19.140625 61.328125 19.140625 66.40625 
Q 19.140625 71.484375 18.75 77.34375 
L 81.25 77.34375 
z
M 76.5625 48.4375 
Q 85.9375 48.828125 93.75 49.21875 
L 93.75 42.96875 
Q 85.9375 43.359375 76.953125 43.359375 
L 25.78125 43.359375 
Q 15.234375 43.359375 5.078125 42.96875 
L 5.078125 49.21875 
Q 15.234375 48.828125 25.78125 48.4375 
z
M 73.828125 57.8125 
L 73.828125 62.890625 
L 26.171875 62.890625 
L 26.171875 57.8125 
z
M 73.828125 67.96875 
L 73.828125 72.65625 
L 26.171875 72.65625 
L 26.171875 67.96875 
z
M 74.21875 29.296875 
L 74.21875 33.984375 
L 53.515625 33.984375 
L 53.515625 29.296875 
z
M 46.484375 29.296875 
L 46.484375 33.984375 
L 25.78125 33.984375 
L 25.78125 29.296875 
z
M 46.484375 19.921875 
L 46.484375 24.21875 
L 25.78125 24.21875 
L 25.78125 19.921875 
z
M 74.21875 19.921875 
L 74.21875 24.21875 
L 53.515625 24.21875 
L 53.515625 19.921875 
z
" id="SimHei-37327"/>
     <path d="M 83.59375 74.21875 
Q 80.078125 61.328125 76.5625 46.484375 
L 90.234375 46.484375 
Q 88.28125 36.328125 85.34375 27.34375 
Q 82.421875 18.359375 76.5625 8.984375 
Q 80.46875 5.078125 85.34375 1.75 
Q 90.234375 -1.5625 96.09375 -3.90625 
Q 91.796875 -7.421875 90.625 -10.9375 
Q 80.859375 -5.46875 71.875 3.90625 
Q 69.140625 1.171875 63.46875 -2.921875 
Q 57.8125 -7.03125 48.828125 -10.9375 
Q 46.875 -7.8125 43.359375 -5.46875 
Q 51.5625 -2.734375 57.421875 1.171875 
Q 63.28125 5.078125 67.578125 9.375 
Q 62.890625 14.84375 54.6875 30.46875 
Q 53.515625 21.875 48.828125 12.5 
Q 44.53125 2.734375 33.203125 -7.421875 
Q 30.859375 -5.46875 26.5625 -3.125 
Q 34.375 2.34375 39.453125 9.953125 
Q 44.53125 17.578125 46.671875 26.359375 
Q 48.828125 35.15625 49.21875 45.5 
Q 49.609375 55.859375 49.609375 67.96875 
Q 45.3125 67.96875 39.453125 67.578125 
L 39.453125 74.609375 
Q 46.484375 74.21875 58.203125 74.21875 
z
M 29.6875 75.78125 
Q 27.34375 72.65625 23.625 65.8125 
Q 19.921875 58.984375 14.0625 50.78125 
L 27.734375 51.5625 
Q 31.640625 57.8125 33.984375 64.453125 
Q 35.9375 62.890625 41.015625 59.765625 
Q 38.671875 55.859375 33.984375 48.4375 
Q 29.296875 41.015625 18.75 26.953125 
Q 30.46875 28.515625 37.5 29.6875 
Q 36.328125 25 36.328125 22.65625 
Q 32.421875 22.265625 24.40625 21.09375 
Q 16.40625 19.921875 8.984375 17.96875 
Q 7.8125 21.875 6.25 25 
Q 9.765625 26.953125 14.453125 31.828125 
Q 19.140625 36.71875 24.21875 45.3125 
Q 19.921875 44.921875 15.8125 44.53125 
Q 11.71875 44.140625 7.8125 42.578125 
Q 6.640625 46.09375 4.6875 50.78125 
Q 9.765625 53.90625 14.640625 62.890625 
Q 19.53125 71.875 21.875 80.078125 
Q 24.609375 78.125 29.6875 75.78125 
z
M 55.859375 48.828125 
Q 55.859375 46.09375 55.859375 43.359375 
Q 58.59375 36.328125 64.0625 27.34375 
Q 69.53125 17.96875 71.875 15.234375 
Q 78.515625 25.390625 81.640625 40.234375 
L 67.578125 40.234375 
Q 71.484375 53.125 74.21875 67.96875 
L 56.25 67.96875 
Q 56.25 58.59375 55.859375 48.828125 
z
M 37.109375 15.625 
Q 35.9375 11.71875 36.328125 8.59375 
Q 28.515625 6.640625 22.265625 4.875 
Q 16.015625 3.125 8.59375 0.78125 
Q 7.421875 4.6875 5.078125 8.203125 
Q 10.546875 9.375 17.375 10.734375 
Q 24.21875 12.109375 37.109375 15.625 
z
" id="SimHei-32423"/>
     <path d="M 88.671875 78.90625 
Q 83.203125 72.65625 77.140625 67.1875 
Q 71.09375 61.71875 66.40625 57.03125 
L 89.0625 57.03125 
Q 88.671875 48.4375 88.671875 40.234375 
L 88.671875 13.28125 
Q 89.0625 8.203125 85.9375 6.640625 
Q 82.8125 5.078125 76.5625 3.90625 
Q 75.78125 7.421875 72.65625 12.109375 
Q 78.515625 12.5 80.46875 13.28125 
Q 82.421875 14.0625 82.03125 20.703125 
L 64.453125 20.703125 
L 64.453125 4.6875 
L 57.421875 4.6875 
L 57.421875 20.703125 
L 40.234375 20.703125 
L 40.234375 4.6875 
L 33.203125 4.6875 
Q 33.59375 17.578125 33.59375 30.46875 
Q 33.59375 43.359375 33.203125 57.03125 
L 56.25 57.03125 
Q 54.296875 60.15625 47.65625 65.625 
Q 50.390625 67.96875 52.734375 70.703125 
Q 59.765625 65.234375 62.5 62.5 
Q 68.75 69.140625 72.265625 72.65625 
L 47.265625 72.65625 
Q 39.453125 72.65625 33.59375 72.265625 
L 33.59375 79.296875 
Q 39.453125 78.90625 46.484375 78.90625 
z
M 22.265625 46.875 
Q 21.875 39.0625 21.875 32.8125 
L 21.875 9.375 
Q 31.640625 -0.390625 57.8125 -0.390625 
Q 83.984375 -0.390625 96.09375 1.953125 
Q 93.75 -2.734375 93.359375 -7.8125 
Q 62.109375 -8.203125 49.015625 -7.03125 
Q 35.9375 -5.859375 27.734375 -1.75 
Q 19.53125 2.34375 16.796875 -0.578125 
Q 14.0625 -3.515625 10.15625 -10.15625 
Q 6.640625 -6.25 3.125 -3.515625 
Q 9.375 1.953125 15.234375 6.640625 
L 15.234375 40.234375 
Q 12.109375 40.234375 5.46875 39.84375 
L 5.46875 47.265625 
Q 11.71875 46.875 22.265625 46.875 
z
M 82.03125 26.953125 
L 82.03125 36.328125 
L 64.453125 36.328125 
L 64.453125 26.953125 
z
M 57.421875 26.953125 
L 57.421875 36.328125 
L 40.234375 36.328125 
L 40.234375 26.953125 
z
M 82.03125 42.578125 
L 82.03125 51.171875 
L 64.453125 51.171875 
L 64.453125 42.578125 
z
M 57.421875 42.578125 
L 57.421875 51.171875 
L 40.234375 51.171875 
L 40.234375 42.578125 
z
M 16.015625 78.515625 
Q 22.65625 69.140625 26.5625 63.671875 
Q 22.265625 61.328125 19.53125 58.203125 
Q 16.796875 64.0625 9.375 73.828125 
Q 12.5 76.171875 16.015625 78.515625 
z
" id="SimHei-36890"/>
     <path d="M 88.28125 24.609375 
Q 87.890625 19.921875 87.890625 8.984375 
Q 87.890625 -1.5625 88.28125 -7.03125 
L 80.859375 -7.03125 
L 80.859375 -0.390625 
L 47.265625 -0.390625 
L 47.265625 -8.59375 
L 39.453125 -8.59375 
Q 39.84375 -2.734375 39.84375 7.8125 
Q 39.84375 18.75 39.453125 24.609375 
L 88.28125 24.609375 
z
M 33.203125 77.734375 
Q 30.859375 75.390625 25.78125 62.109375 
L 25.78125 8.59375 
Q 25.78125 -3.125 26.171875 -9.765625 
L 17.578125 -9.765625 
Q 18.75 -2.734375 18.75 8.984375 
L 18.75 48.4375 
Q 14.0625 39.0625 9.765625 32.8125 
Q 7.421875 36.71875 3.90625 39.0625 
Q 8.203125 43.75 14.453125 55.65625 
Q 20.703125 67.578125 23.828125 80.859375 
Q 28.125 79.296875 33.203125 77.734375 
z
M 80.859375 5.859375 
L 80.859375 19.140625 
L 47.265625 19.140625 
L 47.265625 5.859375 
z
M 94.921875 60.9375 
Q 87.109375 61.328125 64.0625 61.328125 
Q 41.015625 61.328125 32.8125 60.9375 
L 32.8125 67.578125 
L 94.921875 67.578125 
z
M 89.0625 46.875 
Q 82.421875 47.265625 64.84375 47.265625 
Q 47.265625 47.265625 38.671875 46.875 
L 38.671875 53.515625 
Q 46.09375 53.125 64.0625 53.125 
Q 82.421875 53.125 89.0625 53.515625 
z
M 89.0625 33.203125 
Q 83.59375 33.59375 65.234375 33.59375 
Q 47.265625 33.59375 38.671875 33.203125 
L 38.671875 39.84375 
Q 46.875 39.453125 65.234375 39.453125 
Q 83.984375 39.453125 89.0625 39.84375 
z
M 62.890625 81.25 
Q 64.0625 78.90625 65.234375 76.171875 
Q 66.40625 73.4375 67.578125 70.3125 
Q 64.0625 69.140625 60.546875 68.359375 
Q 57.8125 76.5625 55.859375 78.515625 
Q 59.765625 80.078125 62.890625 81.25 
z
" id="SimHei-20449"/>
     <path d="M 45.3125 45.703125 
L 45.3125 70.3125 
Q 45.3125 75 44.921875 79.6875 
L 53.90625 79.6875 
Q 53.515625 75.78125 53.515625 68.75 
L 53.515625 45.703125 
L 72.265625 45.703125 
Q 80.078125 45.703125 87.890625 46.09375 
L 87.890625 38.671875 
Q 80.078125 39.0625 70.703125 39.0625 
L 53.515625 39.0625 
L 53.515625 24.609375 
L 78.515625 24.609375 
Q 87.109375 24.609375 94.53125 25 
L 94.53125 17.578125 
Q 87.109375 17.96875 78.90625 17.96875 
L 53.515625 17.96875 
L 53.515625 3.125 
Q 53.515625 -1.953125 53.90625 -8.984375 
L 44.53125 -8.984375 
Q 45.3125 -1.5625 45.3125 3.125 
L 45.3125 17.96875 
L 20.3125 17.96875 
Q 12.109375 17.96875 3.90625 17.578125 
L 3.90625 25 
Q 12.109375 24.609375 24.609375 24.609375 
L 45.3125 24.609375 
L 45.3125 39.0625 
L 27.734375 39.0625 
Q 19.53125 39.0625 10.546875 38.671875 
L 10.546875 46.09375 
Q 19.140625 45.703125 25.78125 45.703125 
z
M 20.3125 75.390625 
Q 28.515625 65.625 34.765625 57.421875 
Q 31.640625 55.46875 26.953125 51.953125 
Q 21.09375 61.328125 12.890625 69.921875 
Q 16.796875 71.875 20.3125 75.390625 
z
M 64.453125 55.859375 
Q 71.484375 64.0625 76.953125 75 
Q 80.859375 71.875 85.546875 69.921875 
Q 84.375 68.75 79.6875 62.109375 
Q 75 55.46875 71.875 51.171875 
Q 68.75 53.90625 64.453125 55.859375 
z
" id="SimHei-21322"/>
     <path d="M 73.4375 29.296875 
Q 83.203125 29.296875 88.671875 29.6875 
L 88.671875 22.265625 
Q 83.59375 22.65625 73.828125 22.65625 
L 67.96875 22.65625 
L 67.96875 1.5625 
L 83.984375 1.5625 
L 94.921875 2.34375 
L 94.921875 -5.46875 
Q 89.453125 -5.078125 83.984375 -5.078125 
L 45.3125 -5.078125 
Q 38.28125 -5.078125 32.421875 -5.46875 
L 32.421875 1.953125 
Q 38.28125 1.5625 45.3125 1.5625 
L 60.546875 1.5625 
L 60.546875 22.65625 
L 55.46875 22.65625 
Q 48.4375 22.65625 40.234375 22.265625 
L 40.234375 29.6875 
Q 48.4375 29.296875 55.46875 29.296875 
z
M 87.890625 73.4375 
Q 84.375 67.578125 80.65625 63.078125 
Q 76.953125 58.59375 72.265625 53.515625 
Q 85.546875 46.09375 94.53125 39.84375 
Q 91.015625 36.71875 88.671875 33.984375 
Q 75.390625 44.53125 67.1875 49.21875 
Q 60.9375 44.53125 55.46875 41.40625 
Q 50 38.28125 39.453125 32.8125 
Q 38.28125 35.546875 33.984375 39.453125 
Q 43.359375 42.1875 55.265625 49.40625 
Q 67.1875 56.640625 74.609375 67.1875 
L 54.296875 67.1875 
Q 47.265625 67.1875 41.015625 66.796875 
L 41.015625 73.828125 
Q 46.875 73.4375 53.90625 73.4375 
z
M 39.84375 56.25 
Q 35.9375 52.734375 26.953125 41.015625 
L 26.953125 8.984375 
Q 26.953125 0.78125 27.34375 -9.375 
L 19.53125 -9.375 
Q 19.921875 0.78125 19.921875 9.375 
L 19.921875 33.59375 
Q 14.453125 28.515625 9.375 24.21875 
Q 7.03125 26.953125 4.296875 29.6875 
Q 13.28125 35.546875 20.890625 44.328125 
Q 28.515625 53.125 32.8125 61.71875 
Q 35.9375 58.984375 39.84375 56.25 
z
M 35.546875 75.78125 
Q 32.8125 72.65625 25.578125 64.84375 
Q 18.359375 57.03125 11.71875 51.171875 
Q 9.375 53.90625 5.859375 56.640625 
Q 12.890625 61.328125 18.9375 67.765625 
Q 25 74.21875 28.90625 80.859375 
Q 32.03125 78.125 35.546875 75.78125 
z
" id="SimHei-24452"/>
     <path d="M 3.90625 19.140625 
L 10.9375 20.3125 
Q 12.5 15.234375 16.015625 11.90625 
Q 19.53125 8.59375 24.796875 8.78125 
Q 30.078125 8.984375 33.203125 13.078125 
Q 36.328125 17.1875 35.9375 22.453125 
Q 35.546875 27.734375 31.828125 30.65625 
Q 28.125 33.59375 19.921875 34.765625 
L 19.921875 39.84375 
Q 28.125 40.625 31.828125 44.140625 
Q 35.546875 47.65625 35.15625 53.3125 
Q 34.765625 58.984375 30.078125 61.515625 
Q 25.390625 64.0625 20.109375 62.109375 
Q 14.84375 60.15625 11.71875 51.171875 
L 4.6875 52.34375 
Q 7.03125 59.375 11.125 64.0625 
Q 15.234375 68.75 22.265625 69.53125 
Q 29.296875 70.3125 34.5625 67.765625 
Q 39.84375 65.234375 41.984375 59.953125 
Q 44.140625 54.6875 42.578125 48.4375 
Q 41.015625 42.1875 33.59375 37.5 
Q 39.0625 35.15625 41.984375 30.46875 
Q 44.921875 25.78125 43.9375 18.15625 
Q 42.96875 10.546875 37.109375 5.859375 
Q 31.25 1.171875 23.828125 1.359375 
Q 16.40625 1.5625 10.9375 6.046875 
Q 5.46875 10.546875 3.90625 19.140625 
z
" id="SimHei-51"/>
     <path d="M 16.796875 1.953125 
L 7.8125 1.953125 
L 7.8125 10.546875 
L 16.796875 10.546875 
z
" id="SimHei-46"/>
     <path d="M 3.515625 19.53125 
Q 4.296875 30.859375 6.046875 34.765625 
Q 7.8125 38.671875 11.328125 44.53125 
L 27.34375 69.53125 
L 36.328125 69.53125 
L 19.921875 43.75 
Q 30.46875 46.484375 36.71875 42.96875 
Q 42.96875 39.453125 45.109375 34.953125 
Q 47.265625 30.46875 47.453125 25.1875 
Q 47.65625 19.921875 45.890625 14.84375 
Q 44.140625 9.765625 39.640625 5.65625 
Q 35.15625 1.5625 27.140625 1.171875 
Q 19.140625 0.78125 13.46875 4.09375 
Q 7.8125 7.421875 5.65625 13.46875 
Q 3.515625 19.53125 4.296875 30.859375 
z
M 12.5 16.015625 
Q 19.53125 8.59375 25.390625 8.203125 
Q 31.25 7.8125 35.15625 12.109375 
Q 39.0625 16.40625 39.0625 24.609375 
Q 39.0625 32.8125 34.171875 35.9375 
Q 29.296875 39.0625 23.234375 38.28125 
Q 17.1875 37.5 14.453125 32.421875 
Q 11.71875 27.34375 12.109375 21.671875 
Q 12.5 16.015625 19.53125 8.59375 
z
" id="SimHei-54"/>
     <path d="M 8.59375 20.703125 
Q 11.328125 10.15625 17.96875 8.984375 
Q 24.609375 7.8125 28.703125 10.34375 
Q 32.8125 12.890625 34.5625 16.984375 
Q 36.328125 21.09375 36.125 26.171875 
Q 35.9375 31.25 33.390625 34.765625 
Q 30.859375 38.28125 26.953125 39.453125 
Q 23.046875 40.625 18.15625 39.453125 
Q 13.28125 38.28125 10.15625 33.984375 
L 3.515625 34.765625 
Q 4.296875 37.109375 10.9375 68.359375 
L 41.796875 68.359375 
L 41.796875 61.328125 
L 16.796875 61.328125 
Q 14.84375 50.78125 12.890625 44.53125 
Q 18.75 47.265625 23.828125 47.0625 
Q 28.90625 46.875 33.59375 44.71875 
Q 38.28125 42.578125 40.421875 38.859375 
Q 42.578125 35.15625 43.546875 31.4375 
Q 44.53125 27.734375 44.328125 23.4375 
Q 44.140625 19.140625 42.578125 14.640625 
Q 41.015625 10.15625 37.890625 7.21875 
Q 34.765625 4.296875 30.265625 2.53125 
Q 25.78125 0.78125 19.921875 1.171875 
Q 14.0625 1.5625 8.78125 5.46875 
Q 3.515625 9.375 1.5625 18.75 
z
" id="SimHei-53"/>
     <path d="M 3.125 29.296875 
Q 3.90625 50 6.4375 56.046875 
Q 8.984375 62.109375 13.671875 66.015625 
Q 18.359375 69.921875 25.1875 69.921875 
Q 32.03125 69.921875 37.109375 64.25 
Q 42.1875 58.59375 43.75 50 
Q 45.3125 41.40625 44.71875 30.265625 
Q 44.140625 19.140625 40.8125 12.109375 
Q 37.5 5.078125 30.859375 2.34375 
Q 24.21875 -0.390625 17.578125 2.921875 
Q 10.9375 6.25 8.203125 11.71875 
Q 5.46875 17.1875 4.296875 23.234375 
Q 3.125 29.296875 3.90625 50 
z
M 12.890625 52.734375 
Q 10.546875 31.25 12.5 22.84375 
Q 14.453125 14.453125 18.9375 10.9375 
Q 23.4375 7.421875 28.125 9.5625 
Q 32.8125 11.71875 34.953125 18.15625 
Q 37.109375 24.609375 37.109375 32.21875 
Q 37.109375 39.84375 36.515625 46.09375 
Q 35.9375 52.34375 33 57.421875 
Q 30.078125 62.5 25.1875 62.6875 
Q 20.3125 62.890625 16.59375 57.8125 
Q 12.890625 52.734375 10.546875 31.25 
z
" id="SimHei-48"/>
     <path d="M 31.25 17.1875 
L 1.171875 17.1875 
L 1.171875 23.828125 
L 32.8125 69.53125 
L 38.671875 69.53125 
L 38.671875 23.828125 
L 48.046875 23.828125 
L 48.046875 17.1875 
L 38.671875 17.1875 
L 38.671875 2.34375 
L 31.25 2.34375 
z
M 31.25 23.828125 
L 31.25 54.6875 
L 9.375 23.828125 
z
" id="SimHei-52"/>
    </defs>
    <g transform="translate(216.909091 63.12)scale(0.2 -0.2)">
     <use xlink:href="#SimHei-26368"/>
     <use x="100" xlink:href="#SimHei-23567"/>
     <use x="200" xlink:href="#SimHei-33021"/>
     <use x="300" xlink:href="#SimHei-37327"/>
     <use x="400" xlink:href="#SimHei-32423"/>
     <use x="500" xlink:href="#SimHei-36890"/>
     <use x="600" xlink:href="#SimHei-20449"/>
     <use x="700" xlink:href="#SimHei-21322"/>
     <use x="800" xlink:href="#SimHei-24452"/>
     <use x="900" xlink:href="#SimHei-51"/>
     <use x="950" xlink:href="#SimHei-46"/>
     <use x="1000" xlink:href="#SimHei-54"/>
     <use x="1050" xlink:href="#SimHei-53"/>
     <use x="1100" xlink:href="#SimHei-51"/>
     <use x="1150" xlink:href="#SimHei-48"/>
     <use x="1200" xlink:href="#SimHei-48"/>
     <use x="1250" xlink:href="#SimHei-52"/>
    </g>
   </g>
  </g>
  <g id="axes_2">
   <g id="patch_7">
    <path d="M 630.981818 512.64 
L 1036.8 512.64 
L 1036.8 69.12 
L 630.981818 69.12 
z
" style="fill:#ffffff;"/>
   </g>
   <g id="PathCollection_2">
    <defs>
     <path d="M 0 3 
C 0.795609 3 1.55874 2.683901 2.12132 2.12132 
C 2.683901 1.55874 3 0.795609 3 0 
C 3 -0.795609 2.683901 -1.55874 2.12132 -2.12132 
C 1.55874 -2.683901 0.795609 -3 0 -3 
C -0.795609 -3 -1.55874 -2.683901 -2.12132 -2.12132 
C -2.683901 -1.55874 -3 -0.795609 -3 0 
C -3 0.795609 -2.683901 1.55874 -2.12132 2.12132 
C -1.55874 2.683901 -0.795609 3 0 3 
z
" id="me27749dcca" style="stroke:#1f77b4;"/>
    </defs>
    <g clip-path="url(#p0ed206ebe9)">
     <use style="fill:#1f77b4;stroke:#1f77b4;" x="920.840608" xlink:href="#me27749dcca" y="135.213275"/>
     <use style="fill:#1f77b4;stroke:#1f77b4;" x="763.409409" xlink:href="#me27749dcca" y="163.307292"/>
     <use style="fill:#1f77b4;stroke:#1f77b4;" x="829.998568" xlink:href="#me27749dcca" y="141.488219"/>
     <use style="fill:#1f77b4;stroke:#1f77b4;" x="745.653281" xlink:href="#me27749dcca" y="343.880623"/>
     <use style="fill:#1f77b4;stroke:#1f77b4;" x="992.083968" xlink:href="#me27749dcca" y="140.163304"/>
     <use style="fill:#1f77b4;stroke:#1f77b4;" x="881.578418" xlink:href="#me27749dcca" y="109.715999"/>
     <use style="fill:#1f77b4;stroke:#1f77b4;" x="733.150647" xlink:href="#me27749dcca" y="503.147125"/>
     <use style="fill:#1f77b4;stroke:#1f77b4;" x="925.67126" xlink:href="#me27749dcca" y="436.367679"/>
     <use style="fill:#1f77b4;stroke:#1f77b4;" x="963.311334" xlink:href="#me27749dcca" y="372.660072"/>
     <use style="fill:#1f77b4;stroke:#1f77b4;" x="965.093134" xlink:href="#me27749dcca" y="387.143921"/>
     <use style="fill:#1f77b4;stroke:#1f77b4;" x="882.121167" xlink:href="#me27749dcca" y="389.486485"/>
     <use style="fill:#1f77b4;stroke:#1f77b4;" x="958.413833" xlink:href="#me27749dcca" y="189.431581"/>
     <use style="fill:#1f77b4;stroke:#1f77b4;" x="757.320873" xlink:href="#me27749dcca" y="144.126617"/>
     <use style="fill:#1f77b4;stroke:#1f77b4;" x="677.587179" xlink:href="#me27749dcca" y="352.851625"/>
     <use style="fill:#1f77b4;stroke:#1f77b4;" x="682.362915" xlink:href="#me27749dcca" y="178.883962"/>
     <use style="fill:#1f77b4;stroke:#1f77b4;" x="919.372176" xlink:href="#me27749dcca" y="284.786271"/>
     <use style="fill:#1f77b4;stroke:#1f77b4;" x="1032.735939" xlink:href="#me27749dcca" y="442.066262"/>
     <use style="fill:#1f77b4;stroke:#1f77b4;" x="794.692904" xlink:href="#me27749dcca" y="352.284479"/>
     <use style="fill:#1f77b4;stroke:#1f77b4;" x="891.017637" xlink:href="#me27749dcca" y="391.660072"/>
     <use style="fill:#1f77b4;stroke:#1f77b4;" x="830.469669" xlink:href="#me27749dcca" y="271.268263"/>
    </g>
   </g>
   <g id="patch_8">
    <path clip-path="url(#p0ed206ebe9)" d="M 920.840608 297.231287 
C 960.15578 297.231287 997.865998 280.160047 1025.666024 249.77731 
C 1053.466049 219.394573 1069.086133 178.180954 1069.086133 135.213275 
C 1069.086133 92.245596 1053.466049 51.031977 1025.666024 20.649239 
C 997.865998 -9.733498 960.15578 -26.804738 920.840608 -26.804738 
C 881.525435 -26.804738 843.815217 -9.733498 816.015192 20.649239 
C 788.215166 51.031977 772.595083 92.245596 772.595083 135.213275 
C 772.595083 178.180954 788.215166 219.394573 816.015192 249.77731 
C 843.815217 280.160047 881.525435 297.231287 920.840608 297.231287 
z
" style="fill:#1f77b4;opacity:0.2;"/>
   </g>
   <g id="patch_9">
    <path clip-path="url(#p0ed206ebe9)" d="M 763.409409 325.325304 
C 802.724582 325.325304 840.4348 308.254064 868.234825 277.871327 
C 896.034851 247.48859 911.654934 206.274971 911.654934 163.307292 
C 911.654934 120.339613 896.034851 79.125994 868.234825 48.743256 
C 840.4348 18.360519 802.724582 1.289279 763.409409 1.289279 
C 724.094236 1.289279 686.384019 18.360519 658.583993 48.743256 
C 630.783968 79.125994 615.163884 120.339613 615.163884 163.307292 
C 615.163884 206.274971 630.783968 247.48859 658.583993 277.871327 
C 686.384019 308.254064 724.094236 325.325304 763.409409 325.325304 
z
" style="fill:#1f77b4;opacity:0.2;"/>
   </g>
   <g id="patch_10">
    <path clip-path="url(#p0ed206ebe9)" d="M 829.998568 303.506232 
C 869.313741 303.506232 907.023959 286.434992 934.823984 256.052255 
C 962.624009 225.669517 978.244093 184.455899 978.244093 141.488219 
C 978.244093 98.52054 962.624009 57.306921 934.823984 26.924184 
C 907.023959 -3.458553 869.313741 -20.529793 829.998568 -20.529793 
C 790.683395 -20.529793 752.973177 -3.458553 725.173152 26.924184 
C 697.373126 57.306921 681.753043 98.52054 681.753043 141.488219 
C 681.753043 184.455899 697.373126 225.669517 725.173152 256.052255 
C 752.973177 286.434992 790.683395 303.506232 829.998568 303.506232 
z
" style="fill:#1f77b4;opacity:0.2;"/>
   </g>
   <g id="patch_11">
    <path clip-path="url(#p0ed206ebe9)" d="M 745.653281 505.898635 
C 784.968454 505.898635 822.678672 488.827395 850.478697 458.444658 
C 878.278722 428.061921 893.898806 386.848302 893.898806 343.880623 
C 893.898806 300.912943 878.278722 259.699325 850.478697 229.316587 
C 822.678672 198.93385 784.968454 181.86261 745.653281 181.86261 
C 706.338108 181.86261 668.62789 198.93385 640.827865 229.316587 
C 613.02784 259.699325 597.407756 300.912943 597.407756 343.880623 
C 597.407756 386.848302 613.02784 428.061921 640.827865 458.444658 
C 668.62789 488.827395 706.338108 505.898635 745.653281 505.898635 
z
" style="fill:#1f77b4;opacity:0.2;"/>
   </g>
   <g id="patch_12">
    <path clip-path="url(#p0ed206ebe9)" d="M 992.083968 302.181317 
C 1031.399141 302.181317 1069.109359 285.110077 1096.909384 254.72734 
C 1124.70941 224.344602 1140.329493 183.130983 1140.329493 140.163304 
C 1140.329493 97.195625 1124.70941 55.982006 1096.909384 25.599269 
C 1069.109359 -4.783468 1031.399141 -21.854708 992.083968 -21.854708 
C 952.768796 -21.854708 915.058578 -4.783468 887.258552 25.599269 
C 859.458527 55.982006 843.838443 97.195625 843.838443 140.163304 
C 843.838443 183.130983 859.458527 224.344602 887.258552 254.72734 
C 915.058578 285.110077 952.768796 302.181317 992.083968 302.181317 
z
" style="fill:#1f77b4;opacity:0.2;"/>
   </g>
   <g id="patch_13">
    <path clip-path="url(#p0ed206ebe9)" d="M 881.578418 271.734012 
C 920.893591 271.734012 958.603809 254.662772 986.403834 224.280035 
C 1014.203859 193.897297 1029.823943 152.683679 1029.823943 109.715999 
C 1029.823943 66.74832 1014.203859 25.534701 986.403834 -4.848036 
C 958.603809 -35.230773 920.893591 -52.302013 881.578418 -52.302013 
C 842.263245 -52.302013 804.553027 -35.230773 776.753002 -4.848036 
C 748.952977 25.534701 733.332893 66.74832 733.332893 109.715999 
C 733.332893 152.683679 748.952977 193.897297 776.753002 224.280035 
C 804.553027 254.662772 842.263245 271.734012 881.578418 271.734012 
z
" style="fill:#1f77b4;opacity:0.2;"/>
   </g>
   <g id="patch_14">
    <path clip-path="url(#p0ed206ebe9)" d="M 733.150647 665.165138 
C 772.46582 665.165138 810.176038 648.093898 837.976063 617.711161 
C 865.776089 587.328423 881.396172 546.114805 881.396172 503.147125 
C 881.396172 460.179446 865.776089 418.965827 837.976063 388.58309 
C 810.176038 358.200353 772.46582 341.129113 733.150647 341.129113 
C 693.835474 341.129113 656.125256 358.200353 628.325231 388.58309 
C 600.525206 418.965827 584.905122 460.179446 584.905122 503.147125 
C 584.905122 546.114805 600.525206 587.328423 628.325231 617.711161 
C 656.125256 648.093898 693.835474 665.165138 733.150647 665.165138 
z
" style="fill:#1f77b4;opacity:0.2;"/>
   </g>
   <g id="patch_15">
    <path clip-path="url(#p0ed206ebe9)" d="M 925.67126 598.385691 
C 964.986433 598.385691 1002.696651 581.314451 1030.496676 550.931714 
C 1058.296702 520.548977 1073.916785 479.335358 1073.916785 436.367679 
C 1073.916785 393.399999 1058.296702 352.186381 1030.496676 321.803643 
C 1002.696651 291.420906 964.986433 274.349666 925.67126 274.349666 
C 886.356088 274.349666 848.64587 291.420906 820.845844 321.803643 
C 793.045819 352.186381 777.425735 393.399999 777.425735 436.367679 
C 777.425735 479.335358 793.045819 520.548977 820.845844 550.931714 
C 848.64587 581.314451 886.356088 598.385691 925.67126 598.385691 
z
" style="fill:#1f77b4;opacity:0.2;"/>
   </g>
   <g id="patch_16">
    <path clip-path="url(#p0ed206ebe9)" d="M 963.311334 534.678084 
C 1002.626506 534.678084 1040.336724 517.606844 1068.13675 487.224107 
C 1095.936775 456.84137 1111.556859 415.627751 1111.556859 372.660072 
C 1111.556859 329.692393 1095.936775 288.478774 1068.13675 258.096036 
C 1040.336724 227.713299 1002.626506 210.642059 963.311334 210.642059 
C 923.996161 210.642059 886.285943 227.713299 858.485917 258.096036 
C 830.685892 288.478774 815.065808 329.692393 815.065808 372.660072 
C 815.065808 415.627751 830.685892 456.84137 858.485917 487.224107 
C 886.285943 517.606844 923.996161 534.678084 963.311334 534.678084 
z
" style="fill:#1f77b4;opacity:0.2;"/>
   </g>
   <g id="patch_17">
    <path clip-path="url(#p0ed206ebe9)" d="M 965.093134 549.161934 
C 1004.408307 549.161934 1042.118525 532.090694 1069.91855 501.707957 
C 1097.718575 471.325219 1113.338659 430.111601 1113.338659 387.143921 
C 1113.338659 344.176242 1097.718575 302.962623 1069.91855 272.579886 
C 1042.118525 242.197149 1004.408307 225.125909 965.093134 225.125909 
C 925.777961 225.125909 888.067743 242.197149 860.267718 272.579886 
C 832.467693 302.962623 816.847609 344.176242 816.847609 387.143921 
C 816.847609 430.111601 832.467693 471.325219 860.267718 501.707957 
C 888.067743 532.090694 925.777961 549.161934 965.093134 549.161934 
z
" style="fill:#1f77b4;opacity:0.2;"/>
   </g>
   <g id="patch_18">
    <path clip-path="url(#p0ed206ebe9)" d="M 882.121167 551.504497 
C 921.43634 551.504497 959.146558 534.433257 986.946583 504.05052 
C 1014.746608 473.667783 1030.366692 432.454164 1030.366692 389.486485 
C 1030.366692 346.518806 1014.746608 305.305187 986.946583 274.922449 
C 959.146558 244.539712 921.43634 227.468472 882.121167 227.468472 
C 842.805994 227.468472 805.095776 244.539712 777.295751 274.922449 
C 749.495726 305.305187 733.875642 346.518806 733.875642 389.486485 
C 733.875642 432.454164 749.495726 473.667783 777.295751 504.05052 
C 805.095776 534.433257 842.805994 551.504497 882.121167 551.504497 
z
" style="fill:#1f77b4;opacity:0.2;"/>
   </g>
   <g id="patch_19">
    <path clip-path="url(#p0ed206ebe9)" d="M 958.413833 351.449593 
C 997.729006 351.449593 1035.439224 334.378353 1063.239249 303.995616 
C 1091.039275 273.612879 1106.659358 232.39926 1106.659358 189.431581 
C 1106.659358 146.463901 1091.039275 105.250283 1063.239249 74.867545 
C 1035.439224 44.484808 997.729006 27.413568 958.413833 27.413568 
C 919.098661 27.413568 881.388443 44.484808 853.588417 74.867545 
C 825.788392 105.250283 810.168308 146.463901 810.168308 189.431581 
C 810.168308 232.39926 825.788392 273.612879 853.588417 303.995616 
C 881.388443 334.378353 919.098661 351.449593 958.413833 351.449593 
z
" style="fill:#1f77b4;opacity:0.2;"/>
   </g>
   <g id="patch_20">
    <path clip-path="url(#p0ed206ebe9)" d="M 757.320873 306.144629 
C 796.636045 306.144629 834.346263 289.07339 862.146289 258.690652 
C 889.946314 228.307915 905.566398 187.094296 905.566398 144.126617 
C 905.566398 101.158938 889.946314 59.945319 862.146289 29.562582 
C 834.346263 -0.820156 796.636045 -17.891396 757.320873 -17.891396 
C 718.0057 -17.891396 680.295482 -0.820156 652.495456 29.562582 
C 624.695431 59.945319 609.075347 101.158938 609.075347 144.126617 
C 609.075347 187.094296 624.695431 228.307915 652.495456 258.690652 
C 680.295482 289.07339 718.0057 306.144629 757.320873 306.144629 
z
" style="fill:#1f77b4;opacity:0.2;"/>
   </g>
   <g id="patch_21">
    <path clip-path="url(#p0ed206ebe9)" d="M 677.587179 514.869637 
C 716.902351 514.869637 754.612569 497.798397 782.412595 467.41566 
C 810.21262 437.032923 825.832704 395.819304 825.832704 352.851625 
C 825.832704 309.883945 810.21262 268.670327 782.412595 238.287589 
C 754.612569 207.904852 716.902351 190.833612 677.587179 190.833612 
C 638.272006 190.833612 600.561788 207.904852 572.761763 238.287589 
C 544.961737 268.670327 529.341654 309.883945 529.341654 352.851625 
C 529.341654 395.819304 544.961737 437.032923 572.761763 467.41566 
C 600.561788 497.798397 638.272006 514.869637 677.587179 514.869637 
z
" style="fill:#1f77b4;opacity:0.2;"/>
   </g>
   <g id="patch_22">
    <path clip-path="url(#p0ed206ebe9)" d="M 682.362915 340.901975 
C 721.678088 340.901975 759.388306 323.830735 787.188331 293.447997 
C 814.988356 263.06526 830.60844 221.851641 830.60844 178.883962 
C 830.60844 135.916283 814.988356 94.702664 787.188331 64.319927 
C 759.388306 33.937189 721.678088 16.86595 682.362915 16.86595 
C 643.047742 16.86595 605.337524 33.937189 577.537499 64.319927 
C 549.737473 94.702664 534.11739 135.916283 534.11739 178.883962 
C 534.11739 221.851641 549.737473 263.06526 577.537499 293.447997 
C 605.337524 323.830735 643.047742 340.901975 682.362915 340.901975 
z
" style="fill:#1f77b4;opacity:0.2;"/>
   </g>
   <g id="patch_23">
    <path clip-path="url(#p0ed206ebe9)" d="M 919.372176 446.804283 
C 958.687349 446.804283 996.397567 429.733044 1024.197592 399.350306 
C 1051.997617 368.967569 1067.617701 327.75395 1067.617701 284.786271 
C 1067.617701 241.818592 1051.997617 200.604973 1024.197592 170.222236 
C 996.397567 139.839498 958.687349 122.768258 919.372176 122.768258 
C 880.057003 122.768258 842.346785 139.839498 814.54676 170.222236 
C 786.746735 200.604973 771.126651 241.818592 771.126651 284.786271 
C 771.126651 327.75395 786.746735 368.967569 814.54676 399.350306 
C 842.346785 429.733044 880.057003 446.804283 919.372176 446.804283 
z
" style="fill:#1f77b4;opacity:0.2;"/>
   </g>
   <g id="patch_24">
    <path clip-path="url(#p0ed206ebe9)" d="M 1032.735939 604.084274 
C 1072.051111 604.084274 1109.761329 587.013034 1137.561355 556.630297 
C 1165.36138 526.24756 1180.981464 485.033941 1180.981464 442.066262 
C 1180.981464 399.098582 1165.36138 357.884964 1137.561355 327.502226 
C 1109.761329 297.119489 1072.051111 280.048249 1032.735939 280.048249 
C 993.420766 280.048249 955.710548 297.119489 927.910522 327.502226 
C 900.110497 357.884964 884.490413 399.098582 884.490413 442.066262 
C 884.490413 485.033941 900.110497 526.24756 927.910522 556.630297 
C 955.710548 587.013034 993.420766 604.084274 1032.735939 604.084274 
z
" style="fill:#1f77b4;opacity:0.2;"/>
   </g>
   <g id="patch_25">
    <path clip-path="url(#p0ed206ebe9)" d="M 794.692904 514.302492 
C 834.008077 514.302492 871.718295 497.231252 899.51832 466.848515 
C 927.318346 436.465777 942.938429 395.252159 942.938429 352.284479 
C 942.938429 309.3168 927.318346 268.103181 899.51832 237.720444 
C 871.718295 207.337707 834.008077 190.266467 794.692904 190.266467 
C 755.377731 190.266467 717.667513 207.337707 689.867488 237.720444 
C 662.067463 268.103181 646.447379 309.3168 646.447379 352.284479 
C 646.447379 395.252159 662.067463 436.465777 689.867488 466.848515 
C 717.667513 497.231252 755.377731 514.302492 794.692904 514.302492 
z
" style="fill:#1f77b4;opacity:0.2;"/>
   </g>
   <g id="patch_26">
    <path clip-path="url(#p0ed206ebe9)" d="M 891.017637 553.678084 
C 930.33281 553.678084 968.043027 536.606844 995.843053 506.224107 
C 1023.643078 475.84137 1039.263162 434.627751 1039.263162 391.660072 
C 1039.263162 348.692392 1023.643078 307.478774 995.843053 277.096036 
C 968.043027 246.713299 930.33281 229.642059 891.017637 229.642059 
C 851.702464 229.642059 813.992246 246.713299 786.192221 277.096036 
C 758.392195 307.478774 742.772112 348.692392 742.772112 391.660072 
C 742.772112 434.627751 758.392195 475.84137 786.192221 506.224107 
C 813.992246 536.606844 851.702464 553.678084 891.017637 553.678084 
z
" style="fill:#1f77b4;opacity:0.2;"/>
   </g>
   <g id="patch_27">
    <path clip-path="url(#p0ed206ebe9)" d="M 830.469669 433.286276 
C 869.784842 433.286276 907.49506 416.215036 935.295085 385.832299 
C 963.095111 355.449561 978.715194 314.235942 978.715194 271.268263 
C 978.715194 228.300584 963.095111 187.086965 935.295085 156.704228 
C 907.49506 126.321491 869.784842 109.250251 830.469669 109.250251 
C 791.154497 109.250251 753.444279 126.321491 725.644253 156.704228 
C 697.844228 187.086965 682.224144 228.300584 682.224144 271.268263 
C 682.224144 314.235942 697.844228 355.449561 725.644253 385.832299 
C 753.444279 416.215036 791.154497 433.286276 830.469669 433.286276 
z
" style="fill:#1f77b4;opacity:0.2;"/>
   </g>
   <g id="matplotlib.axis_3"/>
   <g id="matplotlib.axis_4"/>
   <g id="patch_28">
    <path d="M 630.981818 512.64 
L 630.981818 69.12 
" style="fill:none;stroke:#000000;stroke-linecap:square;stroke-linejoin:miter;stroke-width:0.8;"/>
   </g>
   <g id="patch_29">
    <path d="M 1036.8 512.64 
L 1036.8 69.12 
" style="fill:none;stroke:#000000;stroke-linecap:square;stroke-linejoin:miter;stroke-width:0.8;"/>
   </g>
   <g id="patch_30">
    <path d="M 630.981818 512.64 
L 1036.8 512.64 
" style="fill:none;stroke:#000000;stroke-linecap:square;stroke-linejoin:miter;stroke-width:0.8;"/>
   </g>
   <g id="patch_31">
    <path d="M 630.981818 69.12 
L 1036.8 69.12 
" style="fill:none;stroke:#000000;stroke-linecap:square;stroke-linejoin:miter;stroke-width:0.8;"/>
   </g>
   <g id="text_2">
    <!-- 区域覆盖率1.000000 -->
    <defs>
     <path d="M 91.40625 70.703125 
Q 85.546875 71.09375 75.78125 71.09375 
L 17.96875 71.09375 
L 17.96875 -1.171875 
L 81.640625 -1.171875 
Q 89.453125 -1.171875 94.140625 -0.78125 
L 94.140625 -7.8125 
Q 89.0625 -7.421875 80.859375 -7.421875 
L 9.765625 -7.421875 
Q 10.15625 1.953125 10.15625 6.25 
L 10.15625 65.625 
Q 10.15625 72.265625 9.765625 77.734375 
L 91.40625 77.734375 
z
M 35.546875 60.546875 
Q 49.21875 51.171875 59.375 42.1875 
Q 68.359375 52.734375 72.65625 63.28125 
Q 76.953125 60.546875 82.8125 57.8125 
Q 78.515625 55.078125 75.390625 50.390625 
Q 72.265625 45.703125 66.015625 37.109375 
Q 79.296875 26.171875 87.5 15.625 
Q 82.8125 12.5 80.859375 8.984375 
Q 74.609375 18.359375 60.15625 30.46875 
Q 54.296875 23.828125 48.234375 18.359375 
Q 42.1875 12.890625 33.203125 6.25 
Q 29.6875 9.765625 25.390625 12.109375 
Q 33.203125 15.625 39.453125 20.5 
Q 45.703125 25.390625 54.296875 35.9375 
Q 44.53125 44.921875 30.078125 53.90625 
Q 33.984375 57.03125 35.546875 60.546875 
z
" id="SimHei-21306"/>
     <path d="M 71.09375 79.6875 
Q 69.921875 74.609375 70.3125 64.84375 
L 78.515625 64.84375 
Q 85.15625 64.84375 92.96875 65.234375 
L 92.96875 57.8125 
Q 85.546875 58.203125 78.515625 58.203125 
L 70.703125 58.203125 
Q 71.09375 47.65625 71.875 38.46875 
Q 72.65625 29.296875 74.609375 19.921875 
Q 77.734375 28.90625 78.90625 35.546875 
Q 80.078125 42.1875 80.859375 50 
Q 84.765625 48.046875 89.84375 46.875 
Q 88.671875 44.921875 86.515625 36.515625 
Q 84.375 28.125 82.609375 22.65625 
Q 80.859375 17.1875 78.515625 10.9375 
Q 80.078125 7.03125 83 3.703125 
Q 85.9375 0.390625 87.296875 3.3125 
Q 88.671875 6.25 89.84375 10.9375 
Q 92.1875 8.203125 96.875 6.25 
Q 93.75 -1.5625 90.625 -5.265625 
Q 87.5 -8.984375 82.03125 -5.078125 
Q 76.5625 -1.171875 73.828125 4.6875 
Q 71.484375 1.171875 68.15625 -2.734375 
Q 64.84375 -6.640625 60.546875 -10.15625 
Q 58.59375 -8.203125 53.125 -5.078125 
Q 58.59375 -2.34375 63.078125 2.53125 
Q 67.578125 7.421875 69.921875 12.109375 
Q 67.96875 18.359375 66.984375 23.625 
Q 66.015625 28.90625 65.03125 38.28125 
Q 64.0625 47.65625 63.671875 58.203125 
L 49.21875 58.203125 
Q 39.453125 58.203125 30.859375 57.8125 
L 30.859375 65.234375 
Q 39.453125 64.84375 49.21875 64.84375 
L 63.28125 64.84375 
Q 62.890625 71.875 61.71875 80.859375 
Q 66.40625 80.078125 71.09375 79.6875 
z
M 15.234375 66.40625 
Q 15.234375 75 14.84375 79.6875 
L 22.65625 79.6875 
Q 22.265625 74.21875 22.265625 66.40625 
L 22.265625 51.953125 
Q 25.390625 51.953125 31.25 52.34375 
L 31.25 45.3125 
Q 25.390625 45.703125 22.265625 45.703125 
L 22.265625 15.625 
Q 24.21875 16.796875 31.25 19.921875 
Q 30.859375 16.796875 31.25 12.109375 
Q 26.171875 9.765625 18.75 6.640625 
Q 11.328125 3.515625 7.8125 0.78125 
Q 5.859375 5.078125 3.90625 8.984375 
Q 7.421875 9.765625 10.34375 10.734375 
Q 13.28125 11.71875 15.234375 12.890625 
L 15.234375 45.703125 
Q 9.765625 45.703125 4.6875 45.3125 
L 4.6875 52.34375 
Q 9.375 51.953125 15.234375 51.953125 
z
M 59.375 27.34375 
Q 59.375 22.265625 59.765625 17.96875 
L 34.765625 17.96875 
Q 35.15625 21.484375 35.15625 24.609375 
L 35.15625 39.453125 
Q 35.15625 44.140625 34.765625 48.046875 
L 59.765625 48.046875 
Q 59.375 44.921875 59.375 41.796875 
z
M 29.6875 3.515625 
Q 35.9375 4.6875 44.53125 7.21875 
Q 53.125 9.765625 59.765625 12.5 
Q 59.375 9.375 59.375 5.46875 
Q 54.6875 3.90625 47.0625 1.171875 
Q 39.453125 -1.5625 33.203125 -4.296875 
Q 31.640625 -0.390625 29.6875 3.515625 
z
M 52.34375 23.828125 
L 52.34375 42.1875 
L 42.578125 42.1875 
L 42.578125 23.828125 
z
M 82.8125 67.578125 
Q 80.46875 72.265625 76.5625 76.953125 
Q 78.90625 78.90625 82.03125 80.46875 
Q 85.15625 76.5625 89.0625 71.484375 
Q 85.546875 69.921875 82.8125 67.578125 
z
" id="SimHei-22495"/>
     <path d="M 83.203125 13.671875 
Q 80.078125 8.984375 76.953125 5.46875 
Q 73.828125 1.953125 68.75 -1.5625 
Q 74.21875 -2.734375 80.46875 -3.3125 
Q 86.71875 -3.90625 93.75 -3.125 
Q 92.1875 -5.859375 91.015625 -9.765625 
Q 82.421875 -9.765625 75.390625 -8.390625 
Q 68.359375 -7.03125 62.890625 -5.078125 
Q 51.953125 -8.984375 35.546875 -10.15625 
Q 34.765625 -7.03125 31.640625 -3.515625 
Q 38.671875 -3.90625 44.921875 -3.3125 
Q 51.171875 -2.734375 57.03125 -1.171875 
Q 52.734375 1.953125 48.4375 8.203125 
Q 43.359375 4.296875 37.890625 1.5625 
Q 35.9375 4.6875 33.203125 7.03125 
Q 38.28125 8.203125 42.578125 11.328125 
Q 46.875 14.453125 49.21875 17.96875 
L 39.84375 17.96875 
Q 40.234375 24.609375 40.234375 28.125 
L 40.234375 37.109375 
Q 38.28125 35.546875 35.9375 33.984375 
Q 34.375 36.71875 31.640625 39.0625 
Q 35.9375 41.796875 39.640625 45.3125 
Q 43.359375 48.828125 46.484375 53.125 
L 13.671875 53.125 
Q 14.0625 57.421875 14.0625 61.71875 
Q 14.0625 66.015625 13.671875 69.921875 
L 35.546875 69.921875 
L 35.546875 75.390625 
L 23.4375 75.390625 
Q 17.1875 75.390625 9.765625 75 
L 9.765625 80.859375 
Q 17.1875 80.46875 26.5625 80.46875 
L 76.5625 80.46875 
Q 84.765625 80.46875 91.015625 80.859375 
L 91.015625 75 
Q 86.328125 75.390625 78.90625 75.390625 
L 64.453125 75.390625 
L 64.453125 69.921875 
L 87.109375 69.921875 
Q 86.71875 66.015625 86.71875 62.109375 
Q 86.71875 58.203125 87.109375 53.125 
L 49.21875 53.125 
Q 50.78125 51.953125 53.515625 50.78125 
L 51.171875 48.828125 
L 76.171875 48.828125 
Q 82.03125 48.828125 89.0625 49.21875 
L 89.0625 43.359375 
Q 83.203125 43.75 76.171875 43.75 
L 47.265625 43.75 
Q 44.921875 41.796875 43.359375 40.234375 
L 84.765625 40.234375 
Q 84.375 34.375 84.375 28.515625 
Q 84.375 23.046875 84.765625 17.96875 
L 57.421875 17.96875 
Q 55.078125 14.84375 53.90625 13.671875 
z
M 33.59375 29.296875 
Q 30.859375 28.90625 25.390625 23.828125 
L 25.390625 2.734375 
Q 25.390625 -1.5625 25.78125 -9.375 
L 18.359375 -9.375 
Q 18.75 0.78125 18.75 3.90625 
L 18.75 19.140625 
Q 13.28125 15.625 7.03125 11.71875 
Q 6.25 14.453125 3.125 16.796875 
Q 11.71875 21.09375 17.578125 25.390625 
Q 23.4375 29.6875 27.734375 35.15625 
Q 30.078125 32.421875 33.59375 29.296875 
z
M 34.375 47.265625 
Q 31.25 45.703125 25.390625 41.203125 
Q 19.53125 36.71875 10.546875 31.25 
Q 8.59375 34.375 5.859375 36.328125 
Q 13.671875 39.84375 19.140625 44.140625 
Q 24.609375 48.4375 28.125 52.734375 
Q 30.859375 50 34.375 47.265625 
z
M 78.125 31.25 
L 78.125 35.546875 
L 46.875 35.546875 
L 46.875 31.25 
z
M 78.125 22.65625 
L 78.125 26.5625 
L 46.875 26.5625 
L 46.875 22.65625 
z
M 80.46875 58.203125 
L 80.46875 64.84375 
L 64.453125 64.84375 
L 64.453125 58.203125 
z
M 35.546875 58.203125 
L 35.546875 64.84375 
L 20.3125 64.84375 
L 20.3125 58.203125 
z
M 57.421875 58.203125 
L 57.421875 64.84375 
L 42.578125 64.84375 
L 42.578125 58.203125 
z
M 57.421875 69.921875 
L 57.421875 75.390625 
L 42.578125 75.390625 
L 42.578125 69.921875 
z
M 63.28125 1.171875 
Q 68.75 4.6875 71.875 8.59375 
L 55.078125 8.59375 
Q 57.8125 4.6875 63.28125 1.171875 
z
" id="SimHei-35206"/>
     <path d="M 83.984375 24.21875 
Q 83.59375 17.1875 83.59375 11.71875 
L 83.59375 -0.78125 
Q 91.40625 -0.78125 96.484375 0 
L 96.484375 -7.421875 
Q 88.28125 -7.03125 73.828125 -7.03125 
L 21.875 -7.03125 
Q 10.9375 -7.03125 3.125 -7.421875 
L 3.125 0 
Q 9.375 -0.78125 15.625 -0.78125 
L 15.625 11.71875 
Q 15.625 18.359375 15.234375 24.21875 
L 83.984375 24.21875 
z
M 55.46875 68.359375 
Q 58.984375 73.4375 61.71875 82.8125 
Q 65.234375 80.46875 71.09375 78.90625 
Q 68.359375 76.5625 66.59375 73.625 
Q 64.84375 70.703125 63.28125 68.359375 
L 76.171875 68.359375 
Q 82.421875 68.359375 89.0625 68.75 
L 89.0625 61.71875 
Q 82.421875 62.109375 76.171875 62.109375 
L 53.515625 62.109375 
L 53.515625 52.734375 
L 70.3125 52.734375 
Q 76.171875 52.734375 83.203125 53.125 
L 83.203125 46.09375 
Q 76.171875 46.484375 70.3125 46.484375 
L 53.515625 46.484375 
L 53.515625 37.890625 
L 75.78125 37.890625 
Q 82.8125 37.890625 92.578125 38.28125 
L 92.578125 31.640625 
Q 82.8125 32.03125 79.296875 32.03125 
L 21.09375 32.03125 
Q 14.453125 32.03125 8.203125 31.640625 
L 8.203125 38.28125 
Q 13.671875 37.890625 21.09375 37.890625 
L 46.09375 37.890625 
L 46.09375 46.484375 
L 28.515625 46.484375 
Q 23.828125 46.484375 17.1875 46.09375 
L 17.1875 53.125 
Q 23.828125 52.734375 28.125 52.734375 
L 46.09375 52.734375 
L 46.09375 62.109375 
L 26.953125 62.109375 
Q 17.578125 62.109375 10.546875 61.71875 
L 10.546875 68.75 
Q 17.578125 68.359375 26.171875 68.359375 
L 55.46875 68.359375 
z
M 36.328125 -0.78125 
L 36.328125 17.96875 
L 23.046875 17.96875 
L 23.046875 -0.78125 
z
M 76.171875 -0.78125 
L 76.171875 17.96875 
L 63.28125 17.96875 
L 63.28125 -0.78125 
z
M 55.859375 -0.78125 
L 55.859375 17.96875 
L 44.140625 17.96875 
L 44.140625 -0.78125 
z
M 37.109375 82.8125 
Q 41.015625 76.171875 42.96875 72.65625 
Q 39.0625 70.703125 35.546875 68.75 
Q 33.59375 74.21875 30.078125 79.296875 
Q 34.375 81.25 37.109375 82.8125 
z
" id="SimHei-30422"/>
     <path d="M 51.953125 80.46875 
Q 53.515625 76.5625 55.46875 70.703125 
L 75 70.703125 
Q 82.03125 70.703125 90.625 71.09375 
L 90.625 64.453125 
Q 82.03125 65.234375 74.609375 65.234375 
L 43.75 65.234375 
Q 46.484375 63.28125 51.5625 60.9375 
Q 48.046875 58.59375 44.921875 55.265625 
Q 41.796875 51.953125 38.671875 48.828125 
L 51.171875 48.828125 
Q 55.859375 53.515625 58.984375 58.984375 
Q 62.5 56.25 66.796875 53.515625 
Q 61.71875 50.78125 56.25 44.921875 
Q 50.78125 39.0625 41.015625 31.25 
L 60.15625 32.8125 
Q 58.203125 35.15625 56.25 37.890625 
Q 58.59375 38.671875 62.5 41.40625 
Q 66.40625 36.71875 73.4375 26.5625 
Q 69.921875 25.390625 66.015625 22.65625 
Q 65.234375 25 62.890625 27.734375 
Q 57.8125 27.34375 53.515625 27.34375 
L 53.515625 16.40625 
L 80.46875 16.40625 
Q 88.671875 16.40625 95.3125 16.796875 
L 95.3125 10.15625 
Q 89.0625 10.546875 80.078125 10.546875 
L 53.515625 10.546875 
L 53.515625 2.734375 
Q 53.515625 -4.6875 53.90625 -9.765625 
L 45.3125 -9.765625 
Q 45.703125 -4.6875 45.703125 2.734375 
L 45.703125 10.546875 
L 20.703125 10.546875 
Q 12.890625 10.546875 5.078125 10.15625 
L 5.078125 16.796875 
Q 12.890625 16.40625 21.09375 16.40625 
L 45.703125 16.40625 
L 45.703125 26.5625 
Q 42.1875 26.171875 38.671875 25.578125 
Q 35.15625 25 31.640625 23.828125 
Q 30.46875 27.734375 28.90625 31.25 
Q 32.421875 31.640625 36.328125 34.375 
Q 40.234375 37.109375 46.484375 43.75 
Q 35.9375 42.578125 31.640625 41.015625 
Q 30.859375 44.921875 28.90625 49.609375 
Q 32.421875 49.609375 36.328125 54.484375 
Q 40.234375 59.375 42.96875 65.234375 
L 26.5625 65.234375 
Q 17.96875 65.234375 10.15625 64.453125 
L 10.15625 71.09375 
Q 17.96875 70.703125 24.21875 70.703125 
L 46.484375 70.703125 
Q 45.3125 75.390625 43.75 78.515625 
Q 47.265625 79.296875 51.953125 80.46875 
z
M 25.390625 40.234375 
Q 26.953125 37.5 28.515625 34.375 
Q 24.609375 32.03125 20.703125 29.09375 
Q 16.796875 26.171875 12.5 22.265625 
Q 9.765625 26.171875 7.421875 29.296875 
Q 12.5 31.640625 17.1875 34.5625 
Q 21.875 37.5 25.390625 40.234375 
z
M 75.78125 41.40625 
Q 80.078125 38.671875 83.390625 36.515625 
Q 86.71875 34.375 91.796875 30.46875 
Q 88.671875 28.125 85.9375 25 
Q 82.8125 27.734375 79.09375 30.859375 
Q 75.390625 33.984375 71.484375 36.328125 
Q 73.828125 38.671875 75.78125 41.40625 
z
M 89.453125 55.078125 
Q 86.71875 53.90625 82.8125 50.96875 
Q 78.90625 48.046875 75 44.140625 
Q 72.265625 47.65625 69.921875 49.609375 
Q 73.4375 51.953125 76.171875 54.484375 
Q 78.90625 57.03125 82.8125 61.328125 
Q 86.328125 57.8125 89.453125 55.078125 
z
M 16.40625 60.15625 
Q 22.265625 56.25 27.734375 51.171875 
Q 24.609375 48.4375 22.265625 45.703125 
Q 16.796875 51.5625 10.546875 55.078125 
Q 13.671875 57.8125 16.40625 60.15625 
z
" id="SimHei-29575"/>
     <path d="M 21.875 56.25 
Q 16.796875 51.171875 8.984375 46.484375 
L 8.984375 53.90625 
Q 18.75 60.546875 25 69.53125 
L 29.6875 69.53125 
L 29.6875 2.34375 
L 21.875 2.34375 
z
" id="SimHei-49"/>
    </defs>
    <g transform="translate(743.890909 63.12)scale(0.2 -0.2)">
     <use xlink:href="#SimHei-21306"/>
     <use x="100" xlink:href="#SimHei-22495"/>
     <use x="200" xlink:href="#SimHei-35206"/>
     <use x="300" xlink:href="#SimHei-30422"/>
     <use x="400" xlink:href="#SimHei-29575"/>
     <use x="500" xlink:href="#SimHei-49"/>
     <use x="550" xlink:href="#SimHei-46"/>
     <use x="600" xlink:href="#SimHei-48"/>
     <use x="650" xlink:href="#SimHei-48"/>
     <use x="700" xlink:href="#SimHei-48"/>
     <use x="750" xlink:href="#SimHei-48"/>
     <use x="800" xlink:href="#SimHei-48"/>
     <use x="850" xlink:href="#SimHei-48"/>
    </g>
   </g>
  </g>
 </g>
 <defs>
  <clipPath id="p0770a2b859">
   <rect height="443.52" width="405.818182" x="144" y="69.12"/>
  </clipPath>
  <clipPath id="p0ed206ebe9">
   <rect height="443.52" width="405.818182" x="630.981818" y="69.12"/>
  </clipPath>
 </defs>
</svg>
