<?xml version="1.0" encoding="utf-8" standalone="no"?>
<!DOCTYPE svg PUBLIC "-//W3C//DTD SVG 1.1//EN"
  "http://www.w3.org/Graphics/SVG/1.1/DTD/svg11.dtd">
<!-- Created with matplotlib (https://matplotlib.org/) -->
<svg height="343.44pt" version="1.1" viewBox="0 0 460.8 343.44" width="460.8pt" xmlns="http://www.w3.org/2000/svg" xmlns:xlink="http://www.w3.org/1999/xlink">
 <defs>
  <style type="text/css">
*{stroke-linecap:butt;stroke-linejoin:round;}
  </style>
 </defs>
 <g id="figure_1">
  <g id="patch_1">
   <path d="M 0 343.44 
L 460.8 343.44 
L 460.8 0 
L 0 0 
z
" style="fill:#ffffff;"/>
  </g>
  <g id="axes_1">
   <g id="patch_2">
    <path d="M 57.6 305.6616 
L 414.72 305.6616 
L 414.72 41.2128 
L 57.6 41.2128 
z
" style="fill:#ffffff;"/>
   </g>
   <g id="matplotlib.axis_1">
    <g id="xtick_1">
     <g id="line2d_1">
      <defs>
       <path d="M 0 0 
L 0 3.5 
" id="m8ba3fd8196" style="stroke:#000000;stroke-width:0.8;"/>
      </defs>
      <g>
       <use style="stroke:#000000;stroke-width:0.8;" x="73.504793" xlink:href="#m8ba3fd8196" y="305.6616"/>
      </g>
     </g>
     <g id="text_1">
      <!-- 0 -->
      <defs>
       <path d="M 31.78125 66.40625 
Q 24.171875 66.40625 20.328125 58.90625 
Q 16.5 51.421875 16.5 36.375 
Q 16.5 21.390625 20.328125 13.890625 
Q 24.171875 6.390625 31.78125 6.390625 
Q 39.453125 6.390625 43.28125 13.890625 
Q 47.125 21.390625 47.125 36.375 
Q 47.125 51.421875 43.28125 58.90625 
Q 39.453125 66.40625 31.78125 66.40625 
z
M 31.78125 74.21875 
Q 44.046875 74.21875 50.515625 64.515625 
Q 56.984375 54.828125 56.984375 36.375 
Q 56.984375 17.96875 50.515625 8.265625 
Q 44.046875 -1.421875 31.78125 -1.421875 
Q 19.53125 -1.421875 13.0625 8.265625 
Q 6.59375 17.96875 6.59375 36.375 
Q 6.59375 54.828125 13.0625 64.515625 
Q 19.53125 74.21875 31.78125 74.21875 
z
" id="DejaVuSans-48"/>
      </defs>
      <g transform="translate(68.732918 324.059256)scale(0.15 -0.15)">
       <use xlink:href="#DejaVuSans-48"/>
      </g>
     </g>
    </g>
    <g id="xtick_2">
     <g id="line2d_2">
      <g>
       <use style="stroke:#000000;stroke-width:0.8;" x="139.09157" xlink:href="#m8ba3fd8196" y="305.6616"/>
      </g>
     </g>
     <g id="text_2">
      <!-- 2 -->
      <defs>
       <path d="M 19.1875 8.296875 
L 53.609375 8.296875 
L 53.609375 0 
L 7.328125 0 
L 7.328125 8.296875 
Q 12.9375 14.109375 22.625 23.890625 
Q 32.328125 33.6875 34.8125 36.53125 
Q 39.546875 41.84375 41.421875 45.53125 
Q 43.3125 49.21875 43.3125 52.78125 
Q 43.3125 58.59375 39.234375 62.25 
Q 35.15625 65.921875 28.609375 65.921875 
Q 23.96875 65.921875 18.8125 64.3125 
Q 13.671875 62.703125 7.8125 59.421875 
L 7.8125 69.390625 
Q 13.765625 71.78125 18.9375 73 
Q 24.125 74.21875 28.421875 74.21875 
Q 39.75 74.21875 46.484375 68.546875 
Q 53.21875 62.890625 53.21875 53.421875 
Q 53.21875 48.921875 51.53125 44.890625 
Q 49.859375 40.875 45.40625 35.40625 
Q 44.1875 33.984375 37.640625 27.21875 
Q 31.109375 20.453125 19.1875 8.296875 
z
" id="DejaVuSans-50"/>
      </defs>
      <g transform="translate(134.319695 324.059256)scale(0.15 -0.15)">
       <use xlink:href="#DejaVuSans-50"/>
      </g>
     </g>
    </g>
    <g id="xtick_3">
     <g id="line2d_3">
      <g>
       <use style="stroke:#000000;stroke-width:0.8;" x="204.678347" xlink:href="#m8ba3fd8196" y="305.6616"/>
      </g>
     </g>
     <g id="text_3">
      <!-- 4 -->
      <defs>
       <path d="M 37.796875 64.3125 
L 12.890625 25.390625 
L 37.796875 25.390625 
z
M 35.203125 72.90625 
L 47.609375 72.90625 
L 47.609375 25.390625 
L 58.015625 25.390625 
L 58.015625 17.1875 
L 47.609375 17.1875 
L 47.609375 0 
L 37.796875 0 
L 37.796875 17.1875 
L 4.890625 17.1875 
L 4.890625 26.703125 
z
" id="DejaVuSans-52"/>
      </defs>
      <g transform="translate(199.906472 324.059256)scale(0.15 -0.15)">
       <use xlink:href="#DejaVuSans-52"/>
      </g>
     </g>
    </g>
    <g id="xtick_4">
     <g id="line2d_4">
      <g>
       <use style="stroke:#000000;stroke-width:0.8;" x="270.265124" xlink:href="#m8ba3fd8196" y="305.6616"/>
      </g>
     </g>
     <g id="text_4">
      <!-- 6 -->
      <defs>
       <path d="M 33.015625 40.375 
Q 26.375 40.375 22.484375 35.828125 
Q 18.609375 31.296875 18.609375 23.390625 
Q 18.609375 15.53125 22.484375 10.953125 
Q 26.375 6.390625 33.015625 6.390625 
Q 39.65625 6.390625 43.53125 10.953125 
Q 47.40625 15.53125 47.40625 23.390625 
Q 47.40625 31.296875 43.53125 35.828125 
Q 39.65625 40.375 33.015625 40.375 
z
M 52.59375 71.296875 
L 52.59375 62.3125 
Q 48.875 64.0625 45.09375 64.984375 
Q 41.3125 65.921875 37.59375 65.921875 
Q 27.828125 65.921875 22.671875 59.328125 
Q 17.53125 52.734375 16.796875 39.40625 
Q 19.671875 43.65625 24.015625 45.921875 
Q 28.375 48.1875 33.59375 48.1875 
Q 44.578125 48.1875 50.953125 41.515625 
Q 57.328125 34.859375 57.328125 23.390625 
Q 57.328125 12.15625 50.6875 5.359375 
Q 44.046875 -1.421875 33.015625 -1.421875 
Q 20.359375 -1.421875 13.671875 8.265625 
Q 6.984375 17.96875 6.984375 36.375 
Q 6.984375 53.65625 15.1875 63.9375 
Q 23.390625 74.21875 37.203125 74.21875 
Q 40.921875 74.21875 44.703125 73.484375 
Q 48.484375 72.75 52.59375 71.296875 
z
" id="DejaVuSans-54"/>
      </defs>
      <g transform="translate(265.493249 324.059256)scale(0.15 -0.15)">
       <use xlink:href="#DejaVuSans-54"/>
      </g>
     </g>
    </g>
    <g id="xtick_5">
     <g id="line2d_5">
      <g>
       <use style="stroke:#000000;stroke-width:0.8;" x="335.851901" xlink:href="#m8ba3fd8196" y="305.6616"/>
      </g>
     </g>
     <g id="text_5">
      <!-- 8 -->
      <defs>
       <path d="M 31.78125 34.625 
Q 24.75 34.625 20.71875 30.859375 
Q 16.703125 27.09375 16.703125 20.515625 
Q 16.703125 13.921875 20.71875 10.15625 
Q 24.75 6.390625 31.78125 6.390625 
Q 38.8125 6.390625 42.859375 10.171875 
Q 46.921875 13.96875 46.921875 20.515625 
Q 46.921875 27.09375 42.890625 30.859375 
Q 38.875 34.625 31.78125 34.625 
z
M 21.921875 38.8125 
Q 15.578125 40.375 12.03125 44.71875 
Q 8.5 49.078125 8.5 55.328125 
Q 8.5 64.0625 14.71875 69.140625 
Q 20.953125 74.21875 31.78125 74.21875 
Q 42.671875 74.21875 48.875 69.140625 
Q 55.078125 64.0625 55.078125 55.328125 
Q 55.078125 49.078125 51.53125 44.71875 
Q 48 40.375 41.703125 38.8125 
Q 48.828125 37.15625 52.796875 32.3125 
Q 56.78125 27.484375 56.78125 20.515625 
Q 56.78125 9.90625 50.3125 4.234375 
Q 43.84375 -1.421875 31.78125 -1.421875 
Q 19.734375 -1.421875 13.25 4.234375 
Q 6.78125 9.90625 6.78125 20.515625 
Q 6.78125 27.484375 10.78125 32.3125 
Q 14.796875 37.15625 21.921875 38.8125 
z
M 18.3125 54.390625 
Q 18.3125 48.734375 21.84375 45.5625 
Q 25.390625 42.390625 31.78125 42.390625 
Q 38.140625 42.390625 41.71875 45.5625 
Q 45.3125 48.734375 45.3125 54.390625 
Q 45.3125 60.0625 41.71875 63.234375 
Q 38.140625 66.40625 31.78125 66.40625 
Q 25.390625 66.40625 21.84375 63.234375 
Q 18.3125 60.0625 18.3125 54.390625 
z
" id="DejaVuSans-56"/>
      </defs>
      <g transform="translate(331.080026 324.059256)scale(0.15 -0.15)">
       <use xlink:href="#DejaVuSans-56"/>
      </g>
     </g>
    </g>
    <g id="xtick_6">
     <g id="line2d_6">
      <g>
       <use style="stroke:#000000;stroke-width:0.8;" x="401.438678" xlink:href="#m8ba3fd8196" y="305.6616"/>
      </g>
     </g>
     <g id="text_6">
      <!-- 10 -->
      <defs>
       <path d="M 12.40625 8.296875 
L 28.515625 8.296875 
L 28.515625 63.921875 
L 10.984375 60.40625 
L 10.984375 69.390625 
L 28.421875 72.90625 
L 38.28125 72.90625 
L 38.28125 8.296875 
L 54.390625 8.296875 
L 54.390625 0 
L 12.40625 0 
z
" id="DejaVuSans-49"/>
      </defs>
      <g transform="translate(391.894928 324.059256)scale(0.15 -0.15)">
       <use xlink:href="#DejaVuSans-49"/>
       <use x="63.623047" xlink:href="#DejaVuSans-48"/>
      </g>
     </g>
    </g>
    <g id="text_7">
     <!-- Communication radius -->
     <defs>
      <path d="M 64.40625 67.28125 
L 64.40625 56.890625 
Q 59.421875 61.53125 53.78125 63.8125 
Q 48.140625 66.109375 41.796875 66.109375 
Q 29.296875 66.109375 22.65625 58.46875 
Q 16.015625 50.828125 16.015625 36.375 
Q 16.015625 21.96875 22.65625 14.328125 
Q 29.296875 6.6875 41.796875 6.6875 
Q 48.140625 6.6875 53.78125 8.984375 
Q 59.421875 11.28125 64.40625 15.921875 
L 64.40625 5.609375 
Q 59.234375 2.09375 53.4375 0.328125 
Q 47.65625 -1.421875 41.21875 -1.421875 
Q 24.65625 -1.421875 15.125 8.703125 
Q 5.609375 18.84375 5.609375 36.375 
Q 5.609375 53.953125 15.125 64.078125 
Q 24.65625 74.21875 41.21875 74.21875 
Q 47.75 74.21875 53.53125 72.484375 
Q 59.328125 70.75 64.40625 67.28125 
z
" id="DejaVuSans-67"/>
      <path d="M 30.609375 48.390625 
Q 23.390625 48.390625 19.1875 42.75 
Q 14.984375 37.109375 14.984375 27.296875 
Q 14.984375 17.484375 19.15625 11.84375 
Q 23.34375 6.203125 30.609375 6.203125 
Q 37.796875 6.203125 41.984375 11.859375 
Q 46.1875 17.53125 46.1875 27.296875 
Q 46.1875 37.015625 41.984375 42.703125 
Q 37.796875 48.390625 30.609375 48.390625 
z
M 30.609375 56 
Q 42.328125 56 49.015625 48.375 
Q 55.71875 40.765625 55.71875 27.296875 
Q 55.71875 13.875 49.015625 6.21875 
Q 42.328125 -1.421875 30.609375 -1.421875 
Q 18.84375 -1.421875 12.171875 6.21875 
Q 5.515625 13.875 5.515625 27.296875 
Q 5.515625 40.765625 12.171875 48.375 
Q 18.84375 56 30.609375 56 
z
" id="DejaVuSans-111"/>
      <path d="M 52 44.1875 
Q 55.375 50.25 60.0625 53.125 
Q 64.75 56 71.09375 56 
Q 79.640625 56 84.28125 50.015625 
Q 88.921875 44.046875 88.921875 33.015625 
L 88.921875 0 
L 79.890625 0 
L 79.890625 32.71875 
Q 79.890625 40.578125 77.09375 44.375 
Q 74.3125 48.1875 68.609375 48.1875 
Q 61.625 48.1875 57.5625 43.546875 
Q 53.515625 38.921875 53.515625 30.90625 
L 53.515625 0 
L 44.484375 0 
L 44.484375 32.71875 
Q 44.484375 40.625 41.703125 44.40625 
Q 38.921875 48.1875 33.109375 48.1875 
Q 26.21875 48.1875 22.15625 43.53125 
Q 18.109375 38.875 18.109375 30.90625 
L 18.109375 0 
L 9.078125 0 
L 9.078125 54.6875 
L 18.109375 54.6875 
L 18.109375 46.1875 
Q 21.1875 51.21875 25.484375 53.609375 
Q 29.78125 56 35.6875 56 
Q 41.65625 56 45.828125 52.96875 
Q 50 49.953125 52 44.1875 
z
" id="DejaVuSans-109"/>
      <path d="M 8.5 21.578125 
L 8.5 54.6875 
L 17.484375 54.6875 
L 17.484375 21.921875 
Q 17.484375 14.15625 20.5 10.265625 
Q 23.53125 6.390625 29.59375 6.390625 
Q 36.859375 6.390625 41.078125 11.03125 
Q 45.3125 15.671875 45.3125 23.6875 
L 45.3125 54.6875 
L 54.296875 54.6875 
L 54.296875 0 
L 45.3125 0 
L 45.3125 8.40625 
Q 42.046875 3.421875 37.71875 1 
Q 33.40625 -1.421875 27.6875 -1.421875 
Q 18.265625 -1.421875 13.375 4.4375 
Q 8.5 10.296875 8.5 21.578125 
z
M 31.109375 56 
z
" id="DejaVuSans-117"/>
      <path d="M 54.890625 33.015625 
L 54.890625 0 
L 45.90625 0 
L 45.90625 32.71875 
Q 45.90625 40.484375 42.875 44.328125 
Q 39.84375 48.1875 33.796875 48.1875 
Q 26.515625 48.1875 22.3125 43.546875 
Q 18.109375 38.921875 18.109375 30.90625 
L 18.109375 0 
L 9.078125 0 
L 9.078125 54.6875 
L 18.109375 54.6875 
L 18.109375 46.1875 
Q 21.34375 51.125 25.703125 53.5625 
Q 30.078125 56 35.796875 56 
Q 45.21875 56 50.046875 50.171875 
Q 54.890625 44.34375 54.890625 33.015625 
z
" id="DejaVuSans-110"/>
      <path d="M 9.421875 54.6875 
L 18.40625 54.6875 
L 18.40625 0 
L 9.421875 0 
z
M 9.421875 75.984375 
L 18.40625 75.984375 
L 18.40625 64.59375 
L 9.421875 64.59375 
z
" id="DejaVuSans-105"/>
      <path d="M 48.78125 52.59375 
L 48.78125 44.1875 
Q 44.96875 46.296875 41.140625 47.34375 
Q 37.3125 48.390625 33.40625 48.390625 
Q 24.65625 48.390625 19.8125 42.84375 
Q 14.984375 37.3125 14.984375 27.296875 
Q 14.984375 17.28125 19.8125 11.734375 
Q 24.65625 6.203125 33.40625 6.203125 
Q 37.3125 6.203125 41.140625 7.25 
Q 44.96875 8.296875 48.78125 10.40625 
L 48.78125 2.09375 
Q 45.015625 0.34375 40.984375 -0.53125 
Q 36.96875 -1.421875 32.421875 -1.421875 
Q 20.0625 -1.421875 12.78125 6.34375 
Q 5.515625 14.109375 5.515625 27.296875 
Q 5.515625 40.671875 12.859375 48.328125 
Q 20.21875 56 33.015625 56 
Q 37.15625 56 41.109375 55.140625 
Q 45.0625 54.296875 48.78125 52.59375 
z
" id="DejaVuSans-99"/>
      <path d="M 34.28125 27.484375 
Q 23.390625 27.484375 19.1875 25 
Q 14.984375 22.515625 14.984375 16.5 
Q 14.984375 11.71875 18.140625 8.90625 
Q 21.296875 6.109375 26.703125 6.109375 
Q 34.1875 6.109375 38.703125 11.40625 
Q 43.21875 16.703125 43.21875 25.484375 
L 43.21875 27.484375 
z
M 52.203125 31.203125 
L 52.203125 0 
L 43.21875 0 
L 43.21875 8.296875 
Q 40.140625 3.328125 35.546875 0.953125 
Q 30.953125 -1.421875 24.3125 -1.421875 
Q 15.921875 -1.421875 10.953125 3.296875 
Q 6 8.015625 6 15.921875 
Q 6 25.140625 12.171875 29.828125 
Q 18.359375 34.515625 30.609375 34.515625 
L 43.21875 34.515625 
L 43.21875 35.40625 
Q 43.21875 41.609375 39.140625 45 
Q 35.0625 48.390625 27.6875 48.390625 
Q 23 48.390625 18.546875 47.265625 
Q 14.109375 46.140625 10.015625 43.890625 
L 10.015625 52.203125 
Q 14.9375 54.109375 19.578125 55.046875 
Q 24.21875 56 28.609375 56 
Q 40.484375 56 46.34375 49.84375 
Q 52.203125 43.703125 52.203125 31.203125 
z
" id="DejaVuSans-97"/>
      <path d="M 18.3125 70.21875 
L 18.3125 54.6875 
L 36.8125 54.6875 
L 36.8125 47.703125 
L 18.3125 47.703125 
L 18.3125 18.015625 
Q 18.3125 11.328125 20.140625 9.421875 
Q 21.96875 7.515625 27.59375 7.515625 
L 36.8125 7.515625 
L 36.8125 0 
L 27.59375 0 
Q 17.1875 0 13.234375 3.875 
Q 9.28125 7.765625 9.28125 18.015625 
L 9.28125 47.703125 
L 2.6875 47.703125 
L 2.6875 54.6875 
L 9.28125 54.6875 
L 9.28125 70.21875 
z
" id="DejaVuSans-116"/>
      <path id="DejaVuSans-32"/>
      <path d="M 41.109375 46.296875 
Q 39.59375 47.171875 37.8125 47.578125 
Q 36.03125 48 33.890625 48 
Q 26.265625 48 22.1875 43.046875 
Q 18.109375 38.09375 18.109375 28.8125 
L 18.109375 0 
L 9.078125 0 
L 9.078125 54.6875 
L 18.109375 54.6875 
L 18.109375 46.1875 
Q 20.953125 51.171875 25.484375 53.578125 
Q 30.03125 56 36.53125 56 
Q 37.453125 56 38.578125 55.875 
Q 39.703125 55.765625 41.0625 55.515625 
z
" id="DejaVuSans-114"/>
      <path d="M 45.40625 46.390625 
L 45.40625 75.984375 
L 54.390625 75.984375 
L 54.390625 0 
L 45.40625 0 
L 45.40625 8.203125 
Q 42.578125 3.328125 38.25 0.953125 
Q 33.9375 -1.421875 27.875 -1.421875 
Q 17.96875 -1.421875 11.734375 6.484375 
Q 5.515625 14.40625 5.515625 27.296875 
Q 5.515625 40.1875 11.734375 48.09375 
Q 17.96875 56 27.875 56 
Q 33.9375 56 38.25 53.625 
Q 42.578125 51.265625 45.40625 46.390625 
z
M 14.796875 27.296875 
Q 14.796875 17.390625 18.875 11.75 
Q 22.953125 6.109375 30.078125 6.109375 
Q 37.203125 6.109375 41.296875 11.75 
Q 45.40625 17.390625 45.40625 27.296875 
Q 45.40625 37.203125 41.296875 42.84375 
Q 37.203125 48.484375 30.078125 48.484375 
Q 22.953125 48.484375 18.875 42.84375 
Q 14.796875 37.203125 14.796875 27.296875 
z
" id="DejaVuSans-100"/>
      <path d="M 44.28125 53.078125 
L 44.28125 44.578125 
Q 40.484375 46.53125 36.375 47.5 
Q 32.28125 48.484375 27.875 48.484375 
Q 21.1875 48.484375 17.84375 46.4375 
Q 14.5 44.390625 14.5 40.28125 
Q 14.5 37.15625 16.890625 35.375 
Q 19.28125 33.59375 26.515625 31.984375 
L 29.59375 31.296875 
Q 39.15625 29.25 43.1875 25.515625 
Q 47.21875 21.78125 47.21875 15.09375 
Q 47.21875 7.46875 41.1875 3.015625 
Q 35.15625 -1.421875 24.609375 -1.421875 
Q 20.21875 -1.421875 15.453125 -0.5625 
Q 10.6875 0.296875 5.421875 2 
L 5.421875 11.28125 
Q 10.40625 8.6875 15.234375 7.390625 
Q 20.0625 6.109375 24.8125 6.109375 
Q 31.15625 6.109375 34.5625 8.28125 
Q 37.984375 10.453125 37.984375 14.40625 
Q 37.984375 18.0625 35.515625 20.015625 
Q 33.0625 21.96875 24.703125 23.78125 
L 21.578125 24.515625 
Q 13.234375 26.265625 9.515625 29.90625 
Q 5.8125 33.546875 5.8125 39.890625 
Q 5.8125 47.609375 11.28125 51.796875 
Q 16.75 56 26.8125 56 
Q 31.78125 56 36.171875 55.265625 
Q 40.578125 54.546875 44.28125 53.078125 
z
" id="DejaVuSans-115"/>
     </defs>
     <g transform="translate(151.479141 342.576444)scale(0.15 -0.15)">
      <use xlink:href="#DejaVuSans-67"/>
      <use x="69.824219" xlink:href="#DejaVuSans-111"/>
      <use x="131.005859" xlink:href="#DejaVuSans-109"/>
      <use x="228.417969" xlink:href="#DejaVuSans-109"/>
      <use x="325.830078" xlink:href="#DejaVuSans-117"/>
      <use x="389.208984" xlink:href="#DejaVuSans-110"/>
      <use x="452.587891" xlink:href="#DejaVuSans-105"/>
      <use x="480.371094" xlink:href="#DejaVuSans-99"/>
      <use x="535.351562" xlink:href="#DejaVuSans-97"/>
      <use x="596.630859" xlink:href="#DejaVuSans-116"/>
      <use x="635.839844" xlink:href="#DejaVuSans-105"/>
      <use x="663.623047" xlink:href="#DejaVuSans-111"/>
      <use x="724.804688" xlink:href="#DejaVuSans-110"/>
      <use x="788.183594" xlink:href="#DejaVuSans-32"/>
      <use x="819.970703" xlink:href="#DejaVuSans-114"/>
      <use x="861.083984" xlink:href="#DejaVuSans-97"/>
      <use x="922.363281" xlink:href="#DejaVuSans-100"/>
      <use x="985.839844" xlink:href="#DejaVuSans-105"/>
      <use x="1013.623047" xlink:href="#DejaVuSans-117"/>
      <use x="1077.001953" xlink:href="#DejaVuSans-115"/>
     </g>
    </g>
   </g>
   <g id="matplotlib.axis_2">
    <g id="ytick_1">
     <g id="line2d_7">
      <defs>
       <path d="M 0 0 
L -3.5 0 
" id="m4d81125b43" style="stroke:#000000;stroke-width:0.8;"/>
      </defs>
      <g>
       <use style="stroke:#000000;stroke-width:0.8;" x="57.6" xlink:href="#m4d81125b43" y="293.6412"/>
      </g>
     </g>
     <g id="text_8">
      <!-- 0.0 -->
      <defs>
       <path d="M 10.6875 12.40625 
L 21 12.40625 
L 21 0 
L 10.6875 0 
z
" id="DejaVuSans-46"/>
      </defs>
      <g transform="translate(26.745313 299.340028)scale(0.15 -0.15)">
       <use xlink:href="#DejaVuSans-48"/>
       <use x="63.623047" xlink:href="#DejaVuSans-46"/>
       <use x="95.410156" xlink:href="#DejaVuSans-48"/>
      </g>
     </g>
    </g>
    <g id="ytick_2">
     <g id="line2d_8">
      <g>
       <use style="stroke:#000000;stroke-width:0.8;" x="57.6" xlink:href="#m4d81125b43" y="245.5596"/>
      </g>
     </g>
     <g id="text_9">
      <!-- 0.2 -->
      <g transform="translate(26.745313 251.258428)scale(0.15 -0.15)">
       <use xlink:href="#DejaVuSans-48"/>
       <use x="63.623047" xlink:href="#DejaVuSans-46"/>
       <use x="95.410156" xlink:href="#DejaVuSans-50"/>
      </g>
     </g>
    </g>
    <g id="ytick_3">
     <g id="line2d_9">
      <g>
       <use style="stroke:#000000;stroke-width:0.8;" x="57.6" xlink:href="#m4d81125b43" y="197.478"/>
      </g>
     </g>
     <g id="text_10">
      <!-- 0.4 -->
      <g transform="translate(26.745313 203.176828)scale(0.15 -0.15)">
       <use xlink:href="#DejaVuSans-48"/>
       <use x="63.623047" xlink:href="#DejaVuSans-46"/>
       <use x="95.410156" xlink:href="#DejaVuSans-52"/>
      </g>
     </g>
    </g>
    <g id="ytick_4">
     <g id="line2d_10">
      <g>
       <use style="stroke:#000000;stroke-width:0.8;" x="57.6" xlink:href="#m4d81125b43" y="149.3964"/>
      </g>
     </g>
     <g id="text_11">
      <!-- 0.6 -->
      <g transform="translate(26.745313 155.095228)scale(0.15 -0.15)">
       <use xlink:href="#DejaVuSans-48"/>
       <use x="63.623047" xlink:href="#DejaVuSans-46"/>
       <use x="95.410156" xlink:href="#DejaVuSans-54"/>
      </g>
     </g>
    </g>
    <g id="ytick_5">
     <g id="line2d_11">
      <g>
       <use style="stroke:#000000;stroke-width:0.8;" x="57.6" xlink:href="#m4d81125b43" y="101.3148"/>
      </g>
     </g>
     <g id="text_12">
      <!-- 0.8 -->
      <g transform="translate(26.745313 107.013628)scale(0.15 -0.15)">
       <use xlink:href="#DejaVuSans-48"/>
       <use x="63.623047" xlink:href="#DejaVuSans-46"/>
       <use x="95.410156" xlink:href="#DejaVuSans-56"/>
      </g>
     </g>
    </g>
    <g id="ytick_6">
     <g id="line2d_12">
      <g>
       <use style="stroke:#000000;stroke-width:0.8;" x="57.6" xlink:href="#m4d81125b43" y="53.2332"/>
      </g>
     </g>
     <g id="text_13">
      <!-- 1.0 -->
      <g transform="translate(26.745313 58.932028)scale(0.15 -0.15)">
       <use xlink:href="#DejaVuSans-49"/>
       <use x="63.623047" xlink:href="#DejaVuSans-46"/>
       <use x="95.410156" xlink:href="#DejaVuSans-48"/>
      </g>
     </g>
    </g>
    <g id="text_14">
     <!-- Pr[network is connected] -->
     <defs>
      <path d="M 19.671875 64.796875 
L 19.671875 37.40625 
L 32.078125 37.40625 
Q 38.96875 37.40625 42.71875 40.96875 
Q 46.484375 44.53125 46.484375 51.125 
Q 46.484375 57.671875 42.71875 61.234375 
Q 38.96875 64.796875 32.078125 64.796875 
z
M 9.8125 72.90625 
L 32.078125 72.90625 
Q 44.34375 72.90625 50.609375 67.359375 
Q 56.890625 61.8125 56.890625 51.125 
Q 56.890625 40.328125 50.609375 34.8125 
Q 44.34375 29.296875 32.078125 29.296875 
L 19.671875 29.296875 
L 19.671875 0 
L 9.8125 0 
z
" id="DejaVuSans-80"/>
      <path d="M 8.59375 75.984375 
L 29.296875 75.984375 
L 29.296875 69 
L 17.578125 69 
L 17.578125 -6.203125 
L 29.296875 -6.203125 
L 29.296875 -13.1875 
L 8.59375 -13.1875 
z
" id="DejaVuSans-91"/>
      <path d="M 56.203125 29.59375 
L 56.203125 25.203125 
L 14.890625 25.203125 
Q 15.484375 15.921875 20.484375 11.0625 
Q 25.484375 6.203125 34.421875 6.203125 
Q 39.59375 6.203125 44.453125 7.46875 
Q 49.3125 8.734375 54.109375 11.28125 
L 54.109375 2.78125 
Q 49.265625 0.734375 44.1875 -0.34375 
Q 39.109375 -1.421875 33.890625 -1.421875 
Q 20.796875 -1.421875 13.15625 6.1875 
Q 5.515625 13.8125 5.515625 26.8125 
Q 5.515625 40.234375 12.765625 48.109375 
Q 20.015625 56 32.328125 56 
Q 43.359375 56 49.78125 48.890625 
Q 56.203125 41.796875 56.203125 29.59375 
z
M 47.21875 32.234375 
Q 47.125 39.59375 43.09375 43.984375 
Q 39.0625 48.390625 32.421875 48.390625 
Q 24.90625 48.390625 20.390625 44.140625 
Q 15.875 39.890625 15.1875 32.171875 
z
" id="DejaVuSans-101"/>
      <path d="M 4.203125 54.6875 
L 13.1875 54.6875 
L 24.421875 12.015625 
L 35.59375 54.6875 
L 46.1875 54.6875 
L 57.421875 12.015625 
L 68.609375 54.6875 
L 77.59375 54.6875 
L 63.28125 0 
L 52.6875 0 
L 40.921875 44.828125 
L 29.109375 0 
L 18.5 0 
z
" id="DejaVuSans-119"/>
      <path d="M 9.078125 75.984375 
L 18.109375 75.984375 
L 18.109375 31.109375 
L 44.921875 54.6875 
L 56.390625 54.6875 
L 27.390625 29.109375 
L 57.625 0 
L 45.90625 0 
L 18.109375 26.703125 
L 18.109375 0 
L 9.078125 0 
z
" id="DejaVuSans-107"/>
      <path d="M 30.421875 75.984375 
L 30.421875 -13.1875 
L 9.71875 -13.1875 
L 9.71875 -6.203125 
L 21.390625 -6.203125 
L 21.390625 69 
L 9.71875 69 
L 9.71875 75.984375 
z
" id="DejaVuSans-93"/>
     </defs>
     <g transform="translate(19.625781 267.382903)rotate(-90)scale(0.15 -0.15)">
      <use xlink:href="#DejaVuSans-80"/>
      <use x="60.287109" xlink:href="#DejaVuSans-114"/>
      <use x="101.400391" xlink:href="#DejaVuSans-91"/>
      <use x="140.414062" xlink:href="#DejaVuSans-110"/>
      <use x="203.792969" xlink:href="#DejaVuSans-101"/>
      <use x="265.316406" xlink:href="#DejaVuSans-116"/>
      <use x="304.525391" xlink:href="#DejaVuSans-119"/>
      <use x="386.3125" xlink:href="#DejaVuSans-111"/>
      <use x="447.494141" xlink:href="#DejaVuSans-114"/>
      <use x="488.607422" xlink:href="#DejaVuSans-107"/>
      <use x="546.517578" xlink:href="#DejaVuSans-32"/>
      <use x="578.304688" xlink:href="#DejaVuSans-105"/>
      <use x="606.087891" xlink:href="#DejaVuSans-115"/>
      <use x="658.1875" xlink:href="#DejaVuSans-32"/>
      <use x="689.974609" xlink:href="#DejaVuSans-99"/>
      <use x="744.955078" xlink:href="#DejaVuSans-111"/>
      <use x="806.136719" xlink:href="#DejaVuSans-110"/>
      <use x="869.515625" xlink:href="#DejaVuSans-110"/>
      <use x="932.894531" xlink:href="#DejaVuSans-101"/>
      <use x="994.417969" xlink:href="#DejaVuSans-99"/>
      <use x="1049.398438" xlink:href="#DejaVuSans-116"/>
      <use x="1088.607422" xlink:href="#DejaVuSans-101"/>
      <use x="1150.130859" xlink:href="#DejaVuSans-100"/>
      <use x="1213.607422" xlink:href="#DejaVuSans-93"/>
     </g>
    </g>
   </g>
   <g id="line2d_13">
    <path clip-path="url(#p24df75e5c6)" d="M 73.832727 293.6412 
L 77.112066 293.6412 
L 80.391405 293.6412 
L 83.670744 293.6412 
L 86.950083 293.6412 
L 90.229421 293.6412 
L 93.50876 293.6412 
L 96.788099 293.6412 
L 100.067438 293.6412 
L 103.346777 293.6412 
L 106.626116 293.6412 
L 109.905455 293.6412 
L 113.184793 293.6412 
L 116.464132 293.6412 
L 119.743471 293.6412 
L 123.02281 293.6412 
L 126.302149 293.6412 
L 129.581488 293.6412 
L 132.860826 293.6412 
L 136.140165 293.6412 
L 139.419504 293.6412 
L 142.698843 293.6412 
L 145.978182 293.6412 
L 149.257521 293.6412 
L 152.53686 292.679568 
L 155.816198 292.679568 
L 159.095537 291.958344 
L 162.374876 291.83814 
L 165.654215 288.712836 
L 168.933554 287.270388 
L 172.212893 281.981412 
L 175.492231 278.495496 
L 178.77157 273.80754 
L 182.050909 268.638768 
L 185.330248 258.301224 
L 188.609587 248.925312 
L 191.888926 242.794908 
L 195.168264 234.260424 
L 198.447603 217.792476 
L 201.726942 212.142888 
L 205.006281 196.636572 
L 208.28562 185.217192 
L 211.564959 174.999852 
L 214.844298 158.892516 
L 218.123636 152.4015 
L 221.402975 143.145792 
L 224.682314 130.644576 
L 227.961653 120.066624 
L 231.240992 113.214996 
L 234.520331 103.238064 
L 237.799669 99.51174 
L 241.079008 96.146028 
L 244.358347 86.649912 
L 247.637686 82.803384 
L 250.917025 76.192164 
L 254.196364 75.831552 
L 257.475702 73.187064 
L 260.755041 68.138496 
L 264.03438 66.45564 
L 267.313719 64.772784 
L 270.593058 62.84952 
L 273.872397 61.166664 
L 277.151736 59.363604 
L 280.431074 58.401972 
L 283.710413 56.719116 
L 286.989752 56.118096 
L 290.269091 55.276668 
L 293.54843 55.517076 
L 296.827769 55.156464 
L 300.107107 55.276668 
L 303.386446 54.795852 
L 306.665785 53.714016 
L 309.945124 54.074628 
L 313.224463 53.473608 
L 316.503802 53.714016 
L 319.78314 53.714016 
L 323.062479 53.473608 
L 326.341818 53.353404 
L 329.621157 53.593812 
L 332.900496 53.353404 
L 336.179835 53.353404 
L 339.459174 53.2332 
L 342.738512 53.2332 
L 346.017851 53.2332 
L 349.29719 53.2332 
L 352.576529 53.2332 
L 355.855868 53.2332 
L 359.135207 53.2332 
L 362.414545 53.2332 
L 365.693884 53.2332 
L 368.973223 53.2332 
L 372.252562 53.2332 
L 375.531901 53.2332 
L 378.81124 53.2332 
L 382.090579 53.2332 
L 385.369917 53.2332 
L 388.649256 53.2332 
L 391.928595 53.2332 
L 395.207934 53.2332 
L 398.487273 53.2332 
" style="fill:none;stroke:#1f77b4;stroke-linecap:square;stroke-width:1.5;"/>
   </g>
   <g id="line2d_14">
    <path clip-path="url(#p24df75e5c6)" d="M 73.832727 293.6412 
L 77.112066 293.6412 
L 80.391405 293.6412 
L 83.670744 293.6412 
L 86.950083 293.6412 
L 90.229421 293.6412 
L 93.50876 293.6412 
L 96.788099 293.6412 
L 100.067438 293.6412 
L 103.346777 293.6412 
L 106.626116 293.6412 
L 109.905455 293.6412 
L 113.184793 293.6412 
L 116.464132 293.6412 
L 119.743471 293.6412 
L 123.02281 293.6412 
L 126.302149 293.6412 
L 129.581488 293.6412 
L 132.860826 293.6412 
L 136.140165 293.6412 
L 139.419504 293.520996 
L 142.698843 293.280588 
L 145.978182 293.160384 
L 149.257521 291.83814 
L 152.53686 288.712836 
L 155.816198 285.948144 
L 159.095537 276.932844 
L 162.374876 268.39836 
L 165.654215 249.406128 
L 168.933554 237.385728 
L 172.212893 219.11472 
L 175.492231 199.761876 
L 178.77157 176.802912 
L 182.050909 162.378432 
L 185.330248 146.511504 
L 188.609587 133.409268 
L 191.888926 117.301932 
L 195.168264 103.71888 
L 198.447603 96.025824 
L 201.726942 88.69338 
L 205.006281 81.120528 
L 208.28562 75.711348 
L 211.564959 69.941556 
L 214.844298 65.974824 
L 218.123636 65.133396 
L 221.402975 62.84952 
L 224.682314 60.325236 
L 227.961653 56.478708 
L 231.240992 58.401972 
L 234.520331 57.680748 
L 237.799669 56.598912 
L 241.079008 55.03626 
L 244.358347 54.315036 
L 247.637686 54.074628 
L 250.917025 54.315036 
L 254.196364 53.954424 
L 257.475702 53.473608 
L 260.755041 53.593812 
L 264.03438 53.593812 
L 267.313719 53.2332 
L 270.593058 53.353404 
L 273.872397 53.353404 
L 277.151736 53.2332 
L 280.431074 53.353404 
L 283.710413 53.2332 
L 286.989752 53.2332 
L 290.269091 53.2332 
L 293.54843 53.2332 
L 296.827769 53.2332 
L 300.107107 53.2332 
L 303.386446 53.2332 
L 306.665785 53.2332 
L 309.945124 53.353404 
L 313.224463 53.2332 
L 316.503802 53.2332 
L 319.78314 53.2332 
L 323.062479 53.2332 
L 326.341818 53.2332 
L 329.621157 53.2332 
L 332.900496 53.2332 
L 336.179835 53.2332 
L 339.459174 53.2332 
L 342.738512 53.2332 
L 346.017851 53.2332 
L 349.29719 53.2332 
L 352.576529 53.2332 
L 355.855868 53.2332 
L 359.135207 53.2332 
L 362.414545 53.2332 
L 365.693884 53.2332 
L 368.973223 53.2332 
L 372.252562 53.2332 
L 375.531901 53.2332 
L 378.81124 53.2332 
L 382.090579 53.2332 
L 385.369917 53.2332 
L 388.649256 53.2332 
L 391.928595 53.2332 
L 395.207934 53.2332 
L 398.487273 53.2332 
" style="fill:none;stroke:#ff7f0e;stroke-linecap:square;stroke-width:1.5;"/>
   </g>
   <g id="line2d_15">
    <path clip-path="url(#p24df75e5c6)" d="M 73.832727 293.6412 
L 77.112066 293.6412 
L 80.391405 293.6412 
L 83.670744 293.6412 
L 86.950083 293.6412 
L 90.229421 293.6412 
L 93.50876 293.6412 
L 96.788099 293.6412 
L 100.067438 293.6412 
L 103.346777 293.6412 
L 106.626116 293.6412 
L 109.905455 293.6412 
L 113.184793 293.6412 
L 116.464132 293.6412 
L 119.743471 293.6412 
L 123.02281 293.6412 
L 126.302149 293.6412 
L 129.581488 293.6412 
L 132.860826 293.6412 
L 136.140165 293.520996 
L 139.419504 292.318956 
L 142.698843 288.83304 
L 145.978182 285.467328 
L 149.257521 271.884276 
L 152.53686 255.416328 
L 155.816198 231.615936 
L 159.095537 208.777176 
L 162.374876 187.140456 
L 165.654215 157.329864 
L 168.933554 132.928452 
L 172.212893 115.258464 
L 175.492231 105.762348 
L 178.77157 92.2995 
L 182.050909 84.245832 
L 185.330248 74.749716 
L 188.609587 69.941556 
L 191.888926 65.974824 
L 195.168264 63.811152 
L 198.447603 61.527276 
L 201.726942 59.724216 
L 205.006281 57.921156 
L 208.28562 56.2383 
L 211.564959 54.916056 
L 214.844298 54.916056 
L 218.123636 54.43524 
L 221.402975 53.593812 
L 224.682314 53.83422 
L 227.961653 53.954424 
L 231.240992 53.714016 
L 234.520331 53.473608 
L 237.799669 53.473608 
L 241.079008 53.353404 
L 244.358347 53.2332 
L 247.637686 53.2332 
L 250.917025 53.2332 
L 254.196364 53.353404 
L 257.475702 53.2332 
L 260.755041 53.2332 
L 264.03438 53.2332 
L 267.313719 53.2332 
L 270.593058 53.2332 
L 273.872397 53.2332 
L 277.151736 53.2332 
L 280.431074 53.2332 
L 283.710413 53.2332 
L 286.989752 53.2332 
L 290.269091 53.2332 
L 293.54843 53.2332 
L 296.827769 53.2332 
L 300.107107 53.2332 
L 303.386446 53.2332 
L 306.665785 53.2332 
L 309.945124 53.2332 
L 313.224463 53.2332 
L 316.503802 53.2332 
L 319.78314 53.2332 
L 323.062479 53.2332 
L 326.341818 53.2332 
L 329.621157 53.2332 
L 332.900496 53.2332 
L 336.179835 53.2332 
L 339.459174 53.2332 
L 342.738512 53.2332 
L 346.017851 53.2332 
L 349.29719 53.2332 
L 352.576529 53.2332 
L 355.855868 53.2332 
L 359.135207 53.2332 
L 362.414545 53.2332 
L 365.693884 53.2332 
L 368.973223 53.2332 
L 372.252562 53.2332 
L 375.531901 53.2332 
L 378.81124 53.2332 
L 382.090579 53.2332 
L 385.369917 53.2332 
L 388.649256 53.2332 
L 391.928595 53.2332 
L 395.207934 53.2332 
L 398.487273 53.2332 
" style="fill:none;stroke:#2ca02c;stroke-linecap:square;stroke-width:1.5;"/>
   </g>
   <g id="line2d_16">
    <path clip-path="url(#p24df75e5c6)" d="M 73.832727 293.6412 
L 77.112066 293.6412 
L 80.391405 293.6412 
L 83.670744 293.6412 
L 86.950083 293.6412 
L 90.229421 293.6412 
L 93.50876 293.6412 
L 96.788099 293.6412 
L 100.067438 293.6412 
L 103.346777 293.6412 
L 106.626116 293.6412 
L 109.905455 293.6412 
L 113.184793 293.6412 
L 116.464132 293.6412 
L 119.743471 293.6412 
L 123.02281 293.6412 
L 126.302149 293.6412 
L 129.581488 293.520996 
L 132.860826 292.43916 
L 136.140165 290.515896 
L 139.419504 283.183452 
L 142.698843 270.682236 
L 145.978182 250.608168 
L 149.257521 216.350028 
L 152.53686 191.4678 
L 155.816198 159.854148 
L 159.095537 133.409268 
L 162.374876 109.608876 
L 165.654215 99.271332 
L 168.933554 83.765016 
L 172.212893 76.432572 
L 175.492231 65.614212 
L 178.77157 66.936456 
L 182.050909 61.527276 
L 185.330248 58.64238 
L 188.609587 58.64238 
L 191.888926 55.276668 
L 195.168264 56.358504 
L 198.447603 54.194832 
L 201.726942 54.315036 
L 205.006281 53.83422 
L 208.28562 53.714016 
L 211.564959 53.473608 
L 214.844298 53.2332 
L 218.123636 53.353404 
L 221.402975 53.353404 
L 224.682314 53.2332 
L 227.961653 53.353404 
L 231.240992 53.2332 
L 234.520331 53.353404 
L 237.799669 53.2332 
L 241.079008 53.2332 
L 244.358347 53.2332 
L 247.637686 53.2332 
L 250.917025 53.2332 
L 254.196364 53.2332 
L 257.475702 53.2332 
L 260.755041 53.2332 
L 264.03438 53.2332 
L 267.313719 53.353404 
L 270.593058 53.2332 
L 273.872397 53.2332 
L 277.151736 53.2332 
L 280.431074 53.2332 
L 283.710413 53.2332 
L 286.989752 53.2332 
L 290.269091 53.2332 
L 293.54843 53.2332 
L 296.827769 53.2332 
L 300.107107 53.2332 
L 303.386446 53.2332 
L 306.665785 53.2332 
L 309.945124 53.2332 
L 313.224463 53.2332 
L 316.503802 53.2332 
L 319.78314 53.2332 
L 323.062479 53.2332 
L 326.341818 53.2332 
L 329.621157 53.2332 
L 332.900496 53.2332 
L 336.179835 53.2332 
L 339.459174 53.2332 
L 342.738512 53.2332 
L 346.017851 53.2332 
L 349.29719 53.2332 
L 352.576529 53.2332 
L 355.855868 53.2332 
L 359.135207 53.2332 
L 362.414545 53.2332 
L 365.693884 53.2332 
L 368.973223 53.2332 
L 372.252562 53.2332 
L 375.531901 53.2332 
L 378.81124 53.2332 
L 382.090579 53.2332 
L 385.369917 53.2332 
L 388.649256 53.2332 
L 391.928595 53.2332 
L 395.207934 53.2332 
L 398.487273 53.2332 
" style="fill:none;stroke:#d62728;stroke-linecap:square;stroke-width:1.5;"/>
   </g>
   <g id="line2d_17">
    <path clip-path="url(#p24df75e5c6)" d="M 73.832727 293.6412 
L 77.112066 293.6412 
L 80.391405 293.6412 
L 83.670744 293.6412 
L 86.950083 293.6412 
L 90.229421 293.6412 
L 93.50876 293.6412 
L 96.788099 293.6412 
L 100.067438 293.6412 
L 103.346777 293.6412 
L 106.626116 293.6412 
L 109.905455 293.6412 
L 113.184793 293.6412 
L 116.464132 293.6412 
L 119.743471 293.6412 
L 123.02281 293.6412 
L 126.302149 293.6412 
L 129.581488 293.400792 
L 132.860826 289.914876 
L 136.140165 281.139984 
L 139.419504 258.902244 
L 142.698843 231.255324 
L 145.978182 191.227392 
L 149.257521 157.20966 
L 152.53686 124.75458 
L 155.816198 106.12296 
L 159.095537 87.972156 
L 162.374876 80.158896 
L 165.654215 71.86482 
L 168.933554 63.330336 
L 172.212893 60.926256 
L 175.492231 58.281768 
L 178.77157 57.079728 
L 182.050909 55.156464 
L 185.330248 55.156464 
L 188.609587 54.074628 
L 191.888926 53.83422 
L 195.168264 53.2332 
L 198.447603 53.473608 
L 201.726942 53.593812 
L 205.006281 53.593812 
L 208.28562 53.473608 
L 211.564959 53.2332 
L 214.844298 53.2332 
L 218.123636 53.2332 
L 221.402975 53.2332 
L 224.682314 53.2332 
L 227.961653 53.2332 
L 231.240992 53.2332 
L 234.520331 53.2332 
L 237.799669 53.353404 
L 241.079008 53.2332 
L 244.358347 53.2332 
L 247.637686 53.2332 
L 250.917025 53.2332 
L 254.196364 53.2332 
L 257.475702 53.2332 
L 260.755041 53.2332 
L 264.03438 53.2332 
L 267.313719 53.2332 
L 270.593058 53.2332 
L 273.872397 53.2332 
L 277.151736 53.2332 
L 280.431074 53.2332 
L 283.710413 53.2332 
L 286.989752 53.2332 
L 290.269091 53.2332 
L 293.54843 53.2332 
L 296.827769 53.2332 
L 300.107107 53.2332 
L 303.386446 53.2332 
L 306.665785 53.2332 
L 309.945124 53.2332 
L 313.224463 53.2332 
L 316.503802 53.2332 
L 319.78314 53.2332 
L 323.062479 53.2332 
L 326.341818 53.2332 
L 329.621157 53.2332 
L 332.900496 53.2332 
L 336.179835 53.2332 
L 339.459174 53.2332 
L 342.738512 53.2332 
L 346.017851 53.2332 
L 349.29719 53.2332 
L 352.576529 53.2332 
L 355.855868 53.2332 
L 359.135207 53.2332 
L 362.414545 53.2332 
L 365.693884 53.2332 
L 368.973223 53.2332 
L 372.252562 53.2332 
L 375.531901 53.2332 
L 378.81124 53.2332 
L 382.090579 53.2332 
L 385.369917 53.2332 
L 388.649256 53.2332 
L 391.928595 53.2332 
L 395.207934 53.2332 
L 398.487273 53.2332 
" style="fill:none;stroke:#9467bd;stroke-linecap:square;stroke-width:1.5;"/>
   </g>
   <g id="patch_3">
    <path d="M 57.6 305.6616 
L 57.6 41.2128 
" style="fill:none;stroke:#000000;stroke-linecap:square;stroke-linejoin:miter;stroke-width:0.8;"/>
   </g>
   <g id="patch_4">
    <path d="M 414.72 305.6616 
L 414.72 41.2128 
" style="fill:none;stroke:#000000;stroke-linecap:square;stroke-linejoin:miter;stroke-width:0.8;"/>
   </g>
   <g id="patch_5">
    <path d="M 57.6 305.6616 
L 414.72 305.6616 
" style="fill:none;stroke:#000000;stroke-linecap:square;stroke-linejoin:miter;stroke-width:0.8;"/>
   </g>
   <g id="patch_6">
    <path d="M 57.6 41.2128 
L 414.72 41.2128 
" style="fill:none;stroke:#000000;stroke-linecap:square;stroke-linejoin:miter;stroke-width:0.8;"/>
   </g>
   <g id="legend_1">
    <g id="patch_7">
     <path d="M 315.056719 298.1616 
L 404.22 298.1616 
Q 407.22 298.1616 407.22 295.1616 
L 407.22 186.575662 
Q 407.22 183.575662 404.22 183.575662 
L 315.056719 183.575662 
Q 312.056719 183.575662 312.056719 186.575662 
L 312.056719 295.1616 
Q 312.056719 298.1616 315.056719 298.1616 
z
" style="fill:#ffffff;opacity:0.8;stroke:#cccccc;stroke-linejoin:miter;"/>
    </g>
    <g id="line2d_18">
     <path d="M 318.056719 195.723319 
L 348.056719 195.723319 
" style="fill:none;stroke:#1f77b4;stroke-linecap:square;stroke-width:1.5;"/>
    </g>
    <g id="line2d_19"/>
    <g id="text_15">
     <!-- n=10 -->
     <defs>
      <path d="M 10.59375 45.40625 
L 73.1875 45.40625 
L 73.1875 37.203125 
L 10.59375 37.203125 
z
M 10.59375 25.484375 
L 73.1875 25.484375 
L 73.1875 17.1875 
L 10.59375 17.1875 
z
" id="DejaVuSans-61"/>
     </defs>
     <g transform="translate(360.056719 200.973319)scale(0.15 -0.15)">
      <use xlink:href="#DejaVuSans-110"/>
      <use x="63.378906" xlink:href="#DejaVuSans-61"/>
      <use x="147.167969" xlink:href="#DejaVuSans-49"/>
      <use x="210.791016" xlink:href="#DejaVuSans-48"/>
     </g>
    </g>
    <g id="line2d_20">
     <path d="M 318.056719 217.740506 
L 348.056719 217.740506 
" style="fill:none;stroke:#ff7f0e;stroke-linecap:square;stroke-width:1.5;"/>
    </g>
    <g id="line2d_21"/>
    <g id="text_16">
     <!-- n=20 -->
     <g transform="translate(360.056719 222.990506)scale(0.15 -0.15)">
      <use xlink:href="#DejaVuSans-110"/>
      <use x="63.378906" xlink:href="#DejaVuSans-61"/>
      <use x="147.167969" xlink:href="#DejaVuSans-50"/>
      <use x="210.791016" xlink:href="#DejaVuSans-48"/>
     </g>
    </g>
    <g id="line2d_22">
     <path d="M 318.056719 239.757694 
L 348.056719 239.757694 
" style="fill:none;stroke:#2ca02c;stroke-linecap:square;stroke-width:1.5;"/>
    </g>
    <g id="line2d_23"/>
    <g id="text_17">
     <!-- n=30 -->
     <defs>
      <path d="M 40.578125 39.3125 
Q 47.65625 37.796875 51.625 33 
Q 55.609375 28.21875 55.609375 21.1875 
Q 55.609375 10.40625 48.1875 4.484375 
Q 40.765625 -1.421875 27.09375 -1.421875 
Q 22.515625 -1.421875 17.65625 -0.515625 
Q 12.796875 0.390625 7.625 2.203125 
L 7.625 11.71875 
Q 11.71875 9.328125 16.59375 8.109375 
Q 21.484375 6.890625 26.8125 6.890625 
Q 36.078125 6.890625 40.9375 10.546875 
Q 45.796875 14.203125 45.796875 21.1875 
Q 45.796875 27.640625 41.28125 31.265625 
Q 36.765625 34.90625 28.71875 34.90625 
L 20.21875 34.90625 
L 20.21875 43.015625 
L 29.109375 43.015625 
Q 36.375 43.015625 40.234375 45.921875 
Q 44.09375 48.828125 44.09375 54.296875 
Q 44.09375 59.90625 40.109375 62.90625 
Q 36.140625 65.921875 28.71875 65.921875 
Q 24.65625 65.921875 20.015625 65.03125 
Q 15.375 64.15625 9.8125 62.3125 
L 9.8125 71.09375 
Q 15.4375 72.65625 20.34375 73.4375 
Q 25.25 74.21875 29.59375 74.21875 
Q 40.828125 74.21875 47.359375 69.109375 
Q 53.90625 64.015625 53.90625 55.328125 
Q 53.90625 49.265625 50.4375 45.09375 
Q 46.96875 40.921875 40.578125 39.3125 
z
" id="DejaVuSans-51"/>
     </defs>
     <g transform="translate(360.056719 245.007694)scale(0.15 -0.15)">
      <use xlink:href="#DejaVuSans-110"/>
      <use x="63.378906" xlink:href="#DejaVuSans-61"/>
      <use x="147.167969" xlink:href="#DejaVuSans-51"/>
      <use x="210.791016" xlink:href="#DejaVuSans-48"/>
     </g>
    </g>
    <g id="line2d_24">
     <path d="M 318.056719 261.774881 
L 348.056719 261.774881 
" style="fill:none;stroke:#d62728;stroke-linecap:square;stroke-width:1.5;"/>
    </g>
    <g id="line2d_25"/>
    <g id="text_18">
     <!-- n=40 -->
     <g transform="translate(360.056719 267.024881)scale(0.15 -0.15)">
      <use xlink:href="#DejaVuSans-110"/>
      <use x="63.378906" xlink:href="#DejaVuSans-61"/>
      <use x="147.167969" xlink:href="#DejaVuSans-52"/>
      <use x="210.791016" xlink:href="#DejaVuSans-48"/>
     </g>
    </g>
    <g id="line2d_26">
     <path d="M 318.056719 283.792069 
L 348.056719 283.792069 
" style="fill:none;stroke:#9467bd;stroke-linecap:square;stroke-width:1.5;"/>
    </g>
    <g id="line2d_27"/>
    <g id="text_19">
     <!-- n=50 -->
     <defs>
      <path d="M 10.796875 72.90625 
L 49.515625 72.90625 
L 49.515625 64.59375 
L 19.828125 64.59375 
L 19.828125 46.734375 
Q 21.96875 47.46875 24.109375 47.828125 
Q 26.265625 48.1875 28.421875 48.1875 
Q 40.625 48.1875 47.75 41.5 
Q 54.890625 34.8125 54.890625 23.390625 
Q 54.890625 11.625 47.5625 5.09375 
Q 40.234375 -1.421875 26.90625 -1.421875 
Q 22.3125 -1.421875 17.546875 -0.640625 
Q 12.796875 0.140625 7.71875 1.703125 
L 7.71875 11.625 
Q 12.109375 9.234375 16.796875 8.0625 
Q 21.484375 6.890625 26.703125 6.890625 
Q 35.15625 6.890625 40.078125 11.328125 
Q 45.015625 15.765625 45.015625 23.390625 
Q 45.015625 31 40.078125 35.4375 
Q 35.15625 39.890625 26.703125 39.890625 
Q 22.75 39.890625 18.8125 39.015625 
Q 14.890625 38.140625 10.796875 36.28125 
z
" id="DejaVuSans-53"/>
     </defs>
     <g transform="translate(360.056719 289.042069)scale(0.15 -0.15)">
      <use xlink:href="#DejaVuSans-110"/>
      <use x="63.378906" xlink:href="#DejaVuSans-61"/>
      <use x="147.167969" xlink:href="#DejaVuSans-53"/>
      <use x="210.791016" xlink:href="#DejaVuSans-48"/>
     </g>
    </g>
   </g>
  </g>
 </g>
 <defs>
  <clipPath id="p24df75e5c6">
   <rect height="264.4488" width="357.12" x="57.6" y="41.2128"/>
  </clipPath>
 </defs>
</svg>
